<?xml version="1.0" encoding="UTF-8" standalone="no"?>
<!-- Created with Inkscape (http://www.inkscape.org/) -->

<svg
   xmlns:dc="http://purl.org/dc/elements/1.1/"
   xmlns:cc="http://creativecommons.org/ns#"
   xmlns:rdf="http://www.w3.org/1999/02/22-rdf-syntax-ns#"
   xmlns:svg="http://www.w3.org/2000/svg"
   xmlns="http://www.w3.org/2000/svg"
   xmlns:sodipodi="http://sodipodi.sourceforge.net/DTD/sodipodi-0.dtd"
   xmlns:inkscape="http://www.inkscape.org/namespaces/inkscape"
   width="3158.3301"
   height="792.10193"
   id="svg2"
   version="1.1"
   inkscape:version="0.48.4 r9939"
   sodipodi:docname="svg_logo_text.svg">
  <defs
     id="defs4">
    <inkscape:path-effect
       effect="envelope"
       id="path-effect4401"
       is_visible="true"
       yy="true"
       xx="false"
       bendpath1="m -1468.1305,40.189331 1230.35561,0"
       bendpath2="m -237.77489,40.189331 0,1550.071469"
       bendpath3="m -1456.7019,1307.4037 603.74921,282.8571 615.1778,0"
       bendpath4="m -1468.1305,40.189331 0,1550.071469"
       bendpath1-nodetypes="cc"
       bendpath3-nodetypes="ccc" />
  </defs>
  <sodipodi:namedview
     id="base"
     pagecolor="#ffffff"
     bordercolor="#666666"
     borderopacity="1.0"
     inkscape:pageopacity="0.0"
     inkscape:pageshadow="2"
     inkscape:zoom="0.175"
     inkscape:cx="2879.0649"
     inkscape:cy="637.80799"
     inkscape:document-units="px"
     inkscape:current-layer="layer1"
     showgrid="false"
     inkscape:window-width="1280"
     inkscape:window-height="969"
     inkscape:window-x="-3"
     inkscape:window-y="-3"
     inkscape:window-maximized="1"
     fit-margin-top="0"
     fit-margin-left="0"
     fit-margin-right="0"
     fit-margin-bottom="0" />
  <metadata
     id="metadata7">
    <rdf:RDF>
      <cc:Work
         rdf:about="">
        <dc:format>image/svg+xml</dc:format>
        <dc:type
           rdf:resource="http://purl.org/dc/dcmitype/StillImage" />
        <dc:title />
      </cc:Work>
    </rdf:RDF>
  </metadata>
  <g
     inkscape:label="Layer 1"
     inkscape:groupmode="layer"
     id="layer1"
     transform="translate(-67.229515,-202.2043)">
    <g
       id="g4369">
      <g
         style="fill:#c5e0bd;fill-opacity:1;stroke:none"
         id="g4156">
        <path
           style="fill:#c5e0bd;fill-opacity:1;stroke:none"
           d="m 76.032957,240.88318 c 5.291898,-0.70344 23.647542,-1.44334 39.414023,-3.0719 15.76648,-1.62856 32.15541,-4.34257 37.5414,-5.18789 2.96033,-0.46462 10.10153,-3.03046 10.10153,5.05076 0,8.08122 0.50507,56.06347 0.50507,56.06347 0,0 0,6.35678 -5.55584,6.86185 -5.55583,0.50508 -82.684574,0.17858 -82.684574,0.17858 0,0 -7.009791,-1.30602 -7.724077,-5.91298 -0.541695,-3.49379 -0.388448,-39.0535 -0.357143,-47.92097 0.0096,-2.71496 3.718334,-5.39079 8.759611,-6.06092 z"
           id="path3338"
           inkscape:connector-curvature="0"
           sodipodi:nodetypes="szsscscsss" />
        <path
           style="fill:#c5e0bd;fill-opacity:1;stroke:none"
           d="m 159.05658,396.59461 c -31.30836,-7.85117 -65.779845,-11.76469 -83.457514,-11.76469 -3.92767,0 -7.374168,2.27434 -7.724078,5.10941 -0.500503,4.05523 -0.798985,36.73366 -0.563723,42.5157 0.157044,3.85967 1.266498,8.31013 7.369562,8.94343 22.718288,2.35743 53.650623,10.80577 82.296803,21.03464 3.49221,1.24699 6.47475,-0.46684 6.83385,-2.58666 0.79047,-4.66622 -0.047,-51.23716 0.11729,-59.09393 0.0446,-2.13459 -1.72906,-3.3697 -4.87219,-4.1579 z"
           id="path4403"
           inkscape:connector-curvature="0"
           sodipodi:nodetypes="sssssssss" />
        <path
           style="fill:#c5e0bd;fill-opacity:1;stroke:none"
           d="m 74.238321,453.55988 c 13.892677,0.36612 64.563589,13.08066 81.204049,21.65945 4.40789,2.27243 5.62499,4.375 5.89285,6.33928 0.21715,1.5924 0.26786,55.44643 0.26786,57.94643 0,2.5 -2.92838,3.41111 -5.99746,1.86865 -34.60298,-17.39077 -47.74146,-23.52043 -83.82397,-31.51151 -3.612573,-0.80007 -4.285715,-2.14286 -4.464286,-3.39286 -0.178572,-1.25 -0.03546,-46.9536 0,-48.39285 0.0523,-2.12305 2.400651,-4.54722 6.920957,-4.51659 z"
           id="path4405"
           inkscape:connector-curvature="0"
           sodipodi:nodetypes="csssssssc" />
        <path
           style="fill:#c5e0bd;fill-opacity:1;stroke:none"
           d="m 73.7499,525.3979 c 25.981615,0.97873 72.70063,23.27494 82.41072,30.04464 6.33928,4.41964 6.875,8.25893 6.96428,11.5625 0.10614,3.92713 -0.11164,56.07044 0.0447,59.82143 0.067,1.60714 -2.31293,1.25685 -3.39286,0.35714 -28.63696,-23.85788 -62.587547,-39.42527 -85.892862,-43.92857 -2.802575,-0.54154 -6.607143,-3.1756 -6.63871,-5.91545 -0.0432,-3.74975 0.01496,-45.88485 0.03157,-48.54884 0.02076,-3.32893 3.151275,-3.51799 6.473162,-3.39285 z"
           id="path2988"
           inkscape:connector-curvature="0"
           sodipodi:nodetypes="sssssssss" />
        <path
           style="fill:#c5e0bd;fill-opacity:1;stroke:none"
           d="m 156.11568,637.02472 c 5.43861,5.49011 6.875,8.25893 6.96428,11.5625 0.10614,3.92713 -0.11164,53.39187 0.0447,57.14286 0.067,1.60714 -1.00135,2.43813 -3.39286,0.35714 -30.0727,-26.16805 -51.33754,-41.7467 -85.892851,-53.92857 -2.692037,-0.94903 -6.428579,-2.99703 -6.460139,-5.73688 -0.0432,-3.74975 -0.167771,-44.91012 -0.146971,-47.26312 0.0205,-2.32819 1.208322,-3.97302 4.687501,-3.66071 25.072498,2.25066 67.76703,25.96422 84.19634,41.52678 z"
           id="path2988-5"
           inkscape:connector-curvature="0"
           sodipodi:nodetypes="csssssssc" />
        <path
           style="fill:#c5e0bd;fill-opacity:1;stroke:none"
           d="m 157.18711,717.92832 c 3.37896,4.37703 4.19643,5.9375 4.28571,9.24107 0.10614,3.92713 -0.11164,53.39186 0.0447,57.14285 0.067,1.60714 -1.20208,2.64849 -3.39286,0.35714 -27.75127,-29.02519 -49.90897,-50.31812 -84.285711,-64.64285 -2.634821,-1.09793 -6.428579,-2.99703 -6.460139,-5.73688 -0.0432,-3.74975 -0.167771,-44.91012 -0.146971,-47.26312 0.0205,-2.32819 0.935972,-4.46454 5.223216,-3.74999 23.979181,3.99656 64.934735,31.87695 84.732055,54.65178 z"
           id="path2988-5-9"
           inkscape:connector-curvature="0"
           sodipodi:nodetypes="csssssssc" />
      </g>
      <g
         style="fill:#75bc5c;fill-opacity:1;stroke:none"
         id="g4239">
        <path
           style="fill:#75bc5c;fill-opacity:1;stroke:none"
           d="m 672.861,240.88318 c -5.2919,-0.70344 -23.64754,-1.44334 -39.41402,-3.0719 -15.76648,-1.62856 -32.15541,-4.34257 -37.5414,-5.18789 -2.96033,-0.46462 -10.10153,-3.03046 -10.10153,5.05076 0,8.08122 -0.50507,56.06347 -0.50507,56.06347 0,0 0,6.35678 5.55584,6.86185 5.55583,0.50508 82.68457,0.17858 82.68457,0.17858 0,0 7.00979,-1.30602 7.72408,-5.91298 0.54169,-3.49379 0.38845,-39.0535 0.35714,-47.92097 -0.01,-2.71496 -3.71833,-5.39079 -8.75961,-6.06092 z"
           id="path3338-30"
           inkscape:connector-curvature="0"
           sodipodi:nodetypes="szsscscsss" />
        <path
           style="fill:#75bc5c;fill-opacity:1;stroke:none"
           d="m 589.83738,396.59461 c 31.30836,-7.85117 65.77984,-11.76469 83.45751,-11.76469 3.92767,0 7.37417,2.27434 7.72408,5.10941 0.5005,4.05523 0.79898,36.73366 0.56372,42.5157 -0.15704,3.85967 -1.2665,8.31013 -7.36956,8.94343 -22.71829,2.35743 -53.65062,10.80577 -82.2968,21.03464 -3.49221,1.24699 -6.47475,-0.46684 -6.83385,-2.58666 -0.79047,-4.66622 0.047,-51.23716 -0.11729,-59.09393 -0.0446,-2.13459 1.72906,-3.3697 4.87219,-4.1579 z"
           id="path4403-6"
           inkscape:connector-curvature="0"
           sodipodi:nodetypes="sssssssss" />
        <path
           style="fill:#75bc5c;fill-opacity:1;stroke:none"
           d="m 674.65564,453.55988 c -13.89268,0.36612 -64.56359,13.08066 -81.20405,21.65945 -4.40789,2.27243 -5.62499,4.375 -5.89285,6.33928 -0.21715,1.5924 -0.26786,55.44643 -0.26786,57.94643 0,2.5 2.92838,3.41111 5.99746,1.86865 34.60298,-17.39077 47.74146,-23.52043 83.82397,-31.51151 3.61257,-0.80007 4.28571,-2.14286 4.46428,-3.39286 0.17858,-1.25 0.0355,-46.9536 0,-48.39285 -0.0523,-2.12305 -2.40065,-4.54722 -6.92095,-4.51659 z"
           id="path4405-55"
           inkscape:connector-curvature="0"
           sodipodi:nodetypes="csssssssc" />
        <path
           style="fill:#75bc5c;fill-opacity:1;stroke:none"
           d="m 675.14406,525.3979 c -25.98162,0.97873 -72.70063,23.27494 -82.41072,30.04464 -6.33928,4.41964 -6.875,8.25893 -6.96428,11.5625 -0.10614,3.92713 0.11164,56.07044 -0.0447,59.82143 -0.067,1.60714 2.31293,1.25685 3.39286,0.35714 28.63696,-23.85788 62.58754,-39.42527 85.89286,-43.92857 2.80257,-0.54154 6.60714,-3.1756 6.63871,-5.91545 0.0432,-3.74975 -0.015,-45.88485 -0.0316,-48.54884 -0.0208,-3.32893 -3.15127,-3.51799 -6.47316,-3.39285 z"
           id="path2988-0"
           inkscape:connector-curvature="0"
           sodipodi:nodetypes="sssssssss" />
        <path
           style="fill:#75bc5c;fill-opacity:1;stroke:none"
           d="m 592.77828,637.02472 c -5.43861,5.49011 -6.875,8.25893 -6.96428,11.5625 -0.10614,3.92713 0.11164,53.39187 -0.0447,57.14286 -0.067,1.60714 1.00135,2.43813 3.39286,0.35714 30.0727,-26.16805 51.33754,-41.7467 85.89285,-53.92857 2.69204,-0.94903 6.42858,-2.99703 6.46014,-5.73688 0.0432,-3.74975 0.16777,-44.91012 0.14697,-47.26312 -0.0205,-2.32819 -1.20832,-3.97302 -4.6875,-3.66071 -25.0725,2.25066 -67.76703,25.96422 -84.19634,41.52678 z"
           id="path2988-5-7"
           inkscape:connector-curvature="0"
           sodipodi:nodetypes="csssssssc" />
        <path
           style="fill:#75bc5c;fill-opacity:1;stroke:none"
           d="m 591.70685,717.92832 c -3.37896,4.37703 -4.19643,5.9375 -4.28571,9.24107 -0.10614,3.92713 0.11164,53.39186 -0.0447,57.14285 -0.067,1.60714 1.20208,2.64849 3.39286,0.35714 27.75127,-29.02519 49.90897,-50.31812 84.28571,-64.64285 2.63482,-1.09793 6.42858,-2.99703 6.46014,-5.73688 0.0432,-3.74975 0.16777,-44.91012 0.14697,-47.26312 -0.0205,-2.32819 -0.93597,-4.46454 -5.22322,-3.74999 -23.97918,3.99656 -64.93473,31.87695 -84.73205,54.65178 z"
           id="path2988-5-9-4"
           inkscape:connector-curvature="0"
           sodipodi:nodetypes="csssssssc" />
      </g>
      <g
         style="fill:#399bff;fill-opacity:1;stroke:none"
         id="g4193">
        <path
           style="fill:#399bff;fill-opacity:1;stroke:none"
           d="m 74.967454,315.04075 83.392856,-0.17857 c 0,0 5,0 5.17857,5.53572 0.17857,5.53571 -0.17857,59.10714 -0.17857,59.10714 0,0 -1.07337,6.12423 -9.28571,4.28571 -16.24321,-3.63642 -50.35554,-7.86771 -77.247465,-8.21428 -3.269582,-0.0421 -9.543173,-2.3085 -9.590554,-7.70396 -0.06186,-7.04438 0.304879,-41.00072 0.230873,-46.58176 -0.04315,-3.25398 1.604452,-6.23738 7.5,-6.25 z"
           id="path3340"
           inkscape:connector-curvature="0"
           sodipodi:nodetypes="scscsssss" />
        <path
           style="fill:#399bff;fill-opacity:1;stroke:none"
           d="m 202.88983,315.04157 c 3.81716,0.009 62.57329,0.009 78.95092,-0.17857 5.52269,-0.0632 9,3.51786 9.17857,7.53572 0.24592,5.53313 0.054,69.10408 0.12627,77.72453 0.0286,3.40888 -4.35807,6.15703 -10.26785,5 -8.73539,-1.71025 -65.62228,-10.60702 -76.69644,-12.03571 -3.92704,-0.50664 -9.19642,-4.14286 -9.37499,-7.89287 -0.34145,-7.17036 0.20903,-55.06643 0.14158,-61.9031 -0.0421,-4.26435 3.43804,-8.26083 7.94194,-8.25 z"
           id="path3340-7"
           inkscape:connector-curvature="0"
           sodipodi:nodetypes="sssssssss" />
        <path
           style="fill:#399bff;fill-opacity:1;stroke:none"
           d="m 340.61429,204.08659 c 23.21582,-2.47922 43.43686,-2.54003 67.66536,0 7.92705,0.90698 14.40211,6.42334 14.40211,14.40211 l 0,69.91792 c 0,7.97876 -6.42333,12.4021 -14.40211,12.4021 l -67.66536,0 c -7.97877,0 -14.4021,-4.42334 -14.4021,-12.4021 l 0,-69.91792 c 0,-7.97877 6.42333,-13.77076 14.4021,-14.40211 z"
           id="rect3188"
           inkscape:connector-curvature="0"
           sodipodi:nodetypes="ccssssssc" />
        <path
           style="fill:#399bff;fill-opacity:1;stroke:none"
           d="m 340.61429,411.58431 c 23.21582,2.47922 43.43686,2.54003 67.66536,0 7.92705,-0.90698 14.40211,-6.42334 14.40211,-14.40211 l 0,-69.91792 c 0,-7.97876 -6.42333,-12.4021 -14.40211,-12.4021 l -67.66536,0 c -7.97877,0 -14.4021,4.42334 -14.4021,12.4021 l 0,69.91792 c 0,7.97877 6.42333,13.77076 14.4021,14.40211 z"
           id="rect3188-8"
           inkscape:connector-curvature="0"
           sodipodi:nodetypes="ccssssssc" />
        <path
           style="fill:#399bff;fill-opacity:1;stroke:none"
           d="m 338.61429,525.79588 c 23.21582,2.47922 47.43686,2.54003 71.66536,0 7.92705,-0.90698 12.40211,-6.42334 12.40211,-14.40211 l 0,-69.91792 c 0,-7.97876 -4.46111,-12.4772 -12.40211,-11.70167 -23.69205,2.31383 -50.32906,2.73018 -71.66536,0 -7.91423,-1.01269 -12.4021,3.72291 -12.4021,11.70167 l 0,69.91792 c 0,7.97877 4.42333,13.77076 12.4021,14.40211 z"
           id="rect3188-8-8"
           inkscape:connector-curvature="0"
           sodipodi:nodetypes="ccssssssc" />
        <path
           style="fill:#399bff;fill-opacity:1;stroke:none"
           d="m 340.61429,640.49639 c 23.21582,2.47922 43.43686,2.54003 67.66536,0 7.92705,-0.90698 14.40211,-6.42334 14.40211,-14.40211 l 0,-69.91792 c 0,-7.97876 -4.65355,-13.40498 -12.40211,-11.50218 -26.64452,6.54306 -51.67984,4.11135 -71.66536,0 -7.81511,-1.60769 -12.4021,3.52342 -12.4021,11.50218 l 0,69.91792 c 0,7.97877 6.42333,13.77076 14.4021,14.40211 z"
           id="rect3188-8-8-9"
           inkscape:connector-curvature="0"
           sodipodi:nodetypes="ccssssssc" />
        <path
           style="fill:#399bff;fill-opacity:1;stroke:none"
           d="m 340.61429,756.92496 c 26.08418,5.07843 45.94917,4.89697 67.66536,0 7.78333,-1.75513 14.40211,-8.42334 14.40211,-16.40211 l 0,-67.91792 c 0,-7.97876 -2.70449,-14.50154 -10.40211,-12.4021 -23.26,6.3439 -53.75162,5.77234 -75.66536,0 -7.71558,-2.03237 -10.4021,4.42334 -10.4021,12.4021 l 0,67.91792 c 0,7.97877 6.5459,14.87256 14.4021,16.40211 z"
           id="rect3188-8-8-3"
           inkscape:connector-curvature="0"
           sodipodi:nodetypes="sssssssss" />
        <path
           style="fill:#399bff;fill-opacity:1;stroke:none"
           d="m 338.61429,871.92496 c 23.43495,5.98586 47.20922,7.24666 71.66536,0 7.64999,-2.26679 12.40211,-8.42334 12.40211,-16.40211 l 0,-67.91792 c 0,-7.97876 -0.88969,-17.08993 -8.40211,-14.4021 -25.54824,9.14079 -54.79043,9.71183 -79.66536,0 -7.43239,-2.90179 -8.4021,6.42334 -8.4021,14.4021 l 0,67.91792 c 0,7.97877 4.64737,14.42136 12.4021,16.40211 z"
           id="rect3188-8-8-6"
           inkscape:connector-curvature="0"
           sodipodi:nodetypes="sssssssss" />
        <path
           style="fill:#399bff;fill-opacity:1;stroke:none"
           d="m 376.43955,994.30478 c 21.42574,0.1133 46.24221,-6.36249 46.24221,-26.21048 l 0,-69.91794 c 0,-7.97876 -1.23325,-11.90473 -8.40211,-8.4021 -23.58399,11.52292 -55.97617,11.58822 -79.66536,0 -7.16718,-3.50602 -8.4021,0.42334 -8.4021,8.4021 l 0,69.91794 c 0,19.59929 28.80161,26.09718 50.22736,26.21048 z"
           id="rect3188-8-8-0"
           inkscape:connector-curvature="0"
           sodipodi:nodetypes="zssssssz" />
        <path
           style="fill:#399bff;fill-opacity:1;stroke:none"
           d="m 673.9265,315.04075 -83.39285,-0.17857 c 0,0 -5,0 -5.17857,5.53572 -0.17857,5.53571 0.17857,59.10714 0.17857,59.10714 0,0 1.07337,6.12423 9.28571,4.28571 16.24321,-3.63642 50.35554,-7.86771 77.24746,-8.21428 3.26959,-0.0421 9.54318,-2.3085 9.59056,-7.70396 0.0619,-7.04438 -0.30488,-41.00072 -0.23088,-46.58176 0.0431,-3.25398 -1.60445,-6.23738 -7.5,-6.25 z"
           id="path3340-4"
           inkscape:connector-curvature="0"
           sodipodi:nodetypes="scscsssss" />
        <path
           style="fill:#399bff;fill-opacity:1;stroke:none"
           d="m 546.00413,315.04157 c -3.81716,0.009 -62.57329,0.009 -78.95092,-0.17857 -5.52269,-0.0632 -9,3.51786 -9.17857,7.53572 -0.24592,5.53313 -0.054,69.10408 -0.12627,77.72453 -0.0286,3.40888 4.35807,6.15703 10.26785,5 8.73539,-1.71025 65.62228,-10.60702 76.69644,-12.03571 3.92704,-0.50664 9.19642,-4.14286 9.37499,-7.89287 0.34145,-7.17036 -0.20903,-55.06643 -0.14158,-61.9031 0.0421,-4.26435 -3.43804,-8.26083 -7.94194,-8.25 z"
           id="path3340-7-4"
           inkscape:connector-curvature="0"
           sodipodi:nodetypes="sssssssss" />
      </g>
      <g
         style="fill:#c5e0bd;fill-opacity:1;stroke:none"
         id="g4247">
        <path
           style="fill:#c5e0bd;fill-opacity:1;stroke:none"
           d="m 204.40824,222.48534 c 27.253,-4.18462 48.59785,-7.55709 76.63974,-11.47408 3.73003,-0.50916 10.10153,-0.8876 10.10153,5.05076 0,8.08122 -0.56636,77.84919 -0.56636,77.84919 0,0 -0.87159,6.7264 -6.44869,6.86185 -6.09155,0.14794 -80.36315,-0.17856 -80.36315,-0.17856 0,0 -8.08121,-0.41317 -8.43836,-5.91298 -0.22911,-3.52811 -0.74397,-55.42831 -0.42028,-63.79928 0.0956,-2.47115 3.37293,-7.44245 9.49557,-8.3969 z"
           id="path3338-3"
           inkscape:connector-curvature="0"
           sodipodi:nodetypes="ccscscssc" />
        <path
           style="fill:#c5e0bd;fill-opacity:1;stroke:none"
           d="m 286.278,424.64598 c -29.93216,-7.63677 -67.3288,-16.18912 -84.11362,-19.04626 -3.87197,-0.65909 -7.3188,3.10255 -7.41157,5.95762 -0.14336,4.41238 -0.0169,54.31001 0.0166,60.09674 0.0308,5.31177 3.43792,9.73747 8.12718,11.78449 20.79498,9.0777 57.16782,23.60066 79.77141,30.57239 4.23168,1.3052 8.46202,-1.13116 8.47535,-3.28114 0.0329,-5.29757 -0.0769,-77.72225 -0.0721,-80.82109 0.003,-1.97564 -1.55323,-4.4361 -4.79327,-5.26275 z"
           id="path4403-9"
           inkscape:connector-curvature="0"
           sodipodi:nodetypes="cssssssssc" />
        <path
           style="fill:#c5e0bd;fill-opacity:1;stroke:none"
           d="m 201.15342,494.80154 c 17.77211,8.9449 58.01164,25.5705 82.59436,35.05113 4.627,1.78446 6.88768,5.25888 7.15554,7.22316 0.21715,1.5924 0.24619,76.64549 0.24619,79.14549 0,2.5 -4.11208,5.26956 -7.13388,3.63642 -34.98179,-18.906 -56.68626,-31.61053 -84.435,-51.97598 -2.98295,-2.18926 -4.15945,-5.93093 -4.33802,-7.18093 -0.17857,-1.25 -0.0355,-60.9536 0,-62.39285 0.0523,-2.12305 2.47669,-5.23487 5.91081,-3.50644 z"
           id="path4405-5"
           inkscape:connector-curvature="0"
           sodipodi:nodetypes="sssssssss" />
        <path
           style="fill:#c5e0bd;fill-opacity:1;stroke:none"
           d="m 200.24291,582.69913 c 20.20995,14.61372 57.69124,39.64786 84.19511,53.61489 6.83665,3.60278 6.60846,8.76904 6.69774,12.07261 0.10614,3.92713 -0.4345,69.99495 -0.52351,73.67486 -0.0803,3.32071 -3.07126,4.54096 -5.98138,2.69311 -32.00897,-20.32482 -64.97745,-50.52807 -87.04196,-70.61067 -3.48084,-3.16818 -3.08956,-8.14075 -3.12112,-10.43866 -0.0515,-3.74964 -0.22354,-56.33323 -0.20694,-58.99722 -0.0637,-2.52386 2.74687,-4.34827 5.98206,-2.00892 z"
           id="path2988-3"
           inkscape:connector-curvature="0"
           sodipodi:nodetypes="ssssssscs" />
        <path
           style="fill:#c5e0bd;fill-opacity:1;stroke:none"
           d="m 284.08672,746.39548 c 5.43861,5.49011 6.875,8.25893 6.96428,11.5625 0.10614,3.92713 0.20295,72.86884 -0.1428,76.60714 -0.36411,3.93677 -4.95923,4.14471 -7.8125,1.69642 -29.43908,-25.26064 -65.72916,-63.67882 -85.16965,-90.49106 -1.83437,-2.52996 -3.57144,-6.3006 -3.51371,-9.66545 0.0643,-3.74945 -0.34634,-55.93691 -0.32554,-58.28991 0.0205,-2.32819 2.29683,-5.62853 4.82143,-3.21428 18.59928,17.78638 63.74918,55.67842 85.17849,71.79464 z"
           id="path2988-5-98"
           inkscape:connector-curvature="0"
           sodipodi:nodetypes="csssssssc" />
        <path
           style="fill:#c5e0bd;fill-opacity:1;stroke:none"
           d="m 285.18291,858.39425 c 3.37896,4.37703 5.20658,7.70527 5.29586,11.00884 0.10614,3.92713 0.51336,74.90079 0.6697,78.65178 0.067,1.60714 -3.12172,3.40742 -5.3125,1.11607 -27.75127,-29.02519 -60.44061,-69.31425 -84.1938,-103.23626 -2.03633,-2.90809 -6.53318,-10.1727 -6.56474,-13.98398 -0.031,-3.74987 -0.21591,-55.79485 -0.2809,-58.14705 -0.15807,-5.72105 0.055,-10.12926 5.22322,-3.74999 14.61459,18.03917 60.31507,67.83861 85.16316,88.34059 z"
           id="path2988-5-9-3"
           inkscape:connector-curvature="0"
           sodipodi:nodetypes="csssssssc" />
      </g>
      <g
         style="fill:#75bc5c;fill-opacity:1;stroke:none"
         id="g4218">
        <path
           style="fill:#75bc5c;fill-opacity:1;stroke:none"
           d="m 544.48572,222.48534 c -27.253,-4.18462 -48.59785,-7.55709 -76.63974,-11.47408 -3.73003,-0.50916 -10.10153,-0.8876 -10.10153,5.05076 0,8.08122 0.56636,77.84919 0.56636,77.84919 0,0 0.87159,6.7264 6.44869,6.86185 6.09155,0.14794 80.36315,-0.17856 80.36315,-0.17856 0,0 8.08121,-0.41317 8.43836,-5.91298 0.22911,-3.52811 0.74397,-55.42831 0.42028,-63.79928 -0.0956,-2.47115 -3.37293,-7.44245 -9.49557,-8.3969 z"
           id="path3338-3-4"
           inkscape:connector-curvature="0"
           sodipodi:nodetypes="ccscscssc" />
        <path
           style="fill:#75bc5c;fill-opacity:1;stroke:none"
           d="m 462.61596,424.64598 c 29.93216,-7.63677 67.3288,-16.18912 84.11362,-19.04626 3.87197,-0.65909 7.3188,3.10255 7.41157,5.95762 0.14336,4.41238 0.0169,54.31001 -0.0166,60.09674 -0.0308,5.31177 -3.43792,9.73747 -8.12718,11.78449 -20.79498,9.0777 -57.16782,23.60066 -79.77141,30.57239 -4.23168,1.3052 -8.46202,-1.13116 -8.47535,-3.28114 -0.0329,-5.29757 0.0769,-77.72225 0.0721,-80.82109 -0.003,-1.97564 1.55323,-4.4361 4.79327,-5.26275 z"
           id="path4403-9-0"
           inkscape:connector-curvature="0"
           sodipodi:nodetypes="cssssssssc" />
        <path
           style="fill:#75bc5c;fill-opacity:1;stroke:none"
           d="m 547.74054,494.80154 c -17.77211,8.9449 -58.01164,25.5705 -82.59436,35.05113 -4.627,1.78446 -6.88768,5.25888 -7.15554,7.22316 -0.21715,1.5924 -0.24619,76.64549 -0.24619,79.14549 0,2.5 4.11208,5.26956 7.13388,3.63642 34.98179,-18.906 56.68626,-31.61053 84.435,-51.97598 2.98295,-2.18926 4.15945,-5.93093 4.33802,-7.18093 0.17857,-1.25 0.0355,-60.9536 0,-62.39285 -0.0523,-2.12305 -2.47669,-5.23487 -5.91081,-3.50644 z"
           id="path4405-5-1"
           inkscape:connector-curvature="0"
           sodipodi:nodetypes="sssssssss" />
        <path
           style="fill:#75bc5c;fill-opacity:1;stroke:none"
           d="m 548.65105,582.69913 c -20.20995,14.61372 -57.69124,39.64786 -84.19511,53.61489 -6.83665,3.60278 -6.60846,8.76904 -6.69774,12.07261 -0.10614,3.92713 0.4345,69.99495 0.52351,73.67486 0.0803,3.32071 3.07126,4.54096 5.98138,2.69311 32.00897,-20.32482 64.97745,-50.52807 87.04196,-70.61067 3.48084,-3.16818 3.08956,-8.14075 3.12112,-10.43866 0.0515,-3.74964 0.22354,-56.33323 0.20694,-58.99722 0.0637,-2.52386 -2.74687,-4.34827 -5.98206,-2.00892 z"
           id="path2988-3-6"
           inkscape:connector-curvature="0"
           sodipodi:nodetypes="ssssssscs" />
        <path
           style="fill:#75bc5c;fill-opacity:1;stroke:none"
           d="m 464.80724,746.39548 c -5.43861,5.49011 -6.875,8.25893 -6.96428,11.5625 -0.10614,3.92713 -0.20295,72.86884 0.1428,76.60714 0.36411,3.93677 4.95923,4.14471 7.8125,1.69642 29.43908,-25.26064 65.72916,-63.67882 85.16965,-90.49106 1.83437,-2.52996 3.57144,-6.3006 3.51371,-9.66545 -0.0643,-3.74945 0.34634,-55.93691 0.32554,-58.28991 -0.0205,-2.32819 -2.29683,-5.62853 -4.82143,-3.21428 -18.59928,17.78638 -63.74918,55.67842 -85.17849,71.79464 z"
           id="path2988-5-98-5"
           inkscape:connector-curvature="0"
           sodipodi:nodetypes="csssssssc" />
        <path
           style="fill:#75bc5c;fill-opacity:1;stroke:none"
           d="m 463.71105,858.39425 c -3.37896,4.37703 -5.20658,7.70527 -5.29586,11.00884 -0.10614,3.92713 -0.51336,74.90079 -0.6697,78.65178 -0.067,1.60714 3.12172,3.40742 5.3125,1.11607 27.75127,-29.02519 60.44061,-69.31425 84.1938,-103.23626 2.03633,-2.90809 6.53318,-10.1727 6.56474,-13.98398 0.031,-3.74987 0.21591,-55.79485 0.2809,-58.14705 0.15807,-5.72105 -0.055,-10.12926 -5.22322,-3.74999 -14.61459,18.03917 -60.31507,67.83861 -85.16316,88.34059 z"
           id="path2988-5-9-3-8"
           inkscape:connector-curvature="0"
           sodipodi:nodetypes="csssssssc" />
      </g>
    </g>
    <g
       id="g4310"
       style="fill:#75bc5c;fill-opacity:1"
       transform="matrix(3.6573848,0,0,3.8504869,664.43445,170.88062)">
      <path
         style="font-size:148.84379578px;font-style:normal;font-variant:normal;font-weight:bold;font-stretch:normal;text-align:start;line-height:100%;letter-spacing:0px;word-spacing:0px;writing-mode:lr-tb;text-anchor:start;fill:#75bc5c;fill-opacity:1;stroke:none;font-family:Linux Biolinum O;-inkscape-font-specification:Linux Biolinum O Bold"
         d="M 92.246991,34.897566 C 74.642812,34.621413 58.039997,56.0927 53.945734,85.28693 c -4.531712,26.25703 0.898581,57.48745 14.706532,72.40441 16.918617,18.66739 42.246574,16.26807 56.268034,-9.29515 13.14211,-25.24118 13.4903,-68.091905 -0.0958,-93.032996 C 116.52041,40.402616 104.1193,34.340349 92.247011,34.897566 z m -0.35931,15.858824 c 8.325499,-1.09989 16.881109,7.435412 19.019499,21.688674 3.3235,20.017418 3.47457,42.145956 0.14373,62.293786 -1.98939,12.72612 -9.50704,21.00939 -17.079228,19.03874 C 83.48866,153.39605 76.131264,136.59715 74.856361,120.10307 73.207051,101.01054 73.064748,79.82571 78.689007,62.579163 81.40958,54.73485 86.621104,50.459914 91.887681,50.75639 z"
         id="path4260"
         inkscape:connector-curvature="0" />
      <path
         style="font-size:148.84379578px;font-style:normal;font-variant:normal;font-weight:bold;font-stretch:normal;text-align:start;line-height:100%;letter-spacing:0px;word-spacing:0px;writing-mode:lr-tb;text-anchor:start;fill:#75bc5c;fill-opacity:1;stroke:none;font-family:Linux Biolinum O;-inkscape-font-specification:Linux Biolinum O Bold"
         d="m 214.22094,27.151611 c -11.24622,0.372313 -23.18265,9.55953 -27.52319,28.211583 -2.0124,7.378507 -2.93734,15.713562 -2.7068,23.971693 -5.5687,-0.25245 -11.74863,0.535374 -16.91155,-0.407682 -0.0864,-9.959264 -2.66558,-24.474523 3.90451,-30.168456 3.90108,-3.708777 7.90768,1.361811 9.2223,7.786723 4.75522,1.751611 3.87421,-7.504473 5.03035,-12.719674 0.17037,-4.651888 3.75734,-11.747342 -0.28745,-13.616573 -9.05624,-3.486146 -18.74816,2.539156 -26.15781,11.129714 -6.52979,8.451255 -11.33597,21.620047 -10.51582,36.079843 -0.40363,4.518422 -5.60677,-0.484342 -7.25807,4.321428 -1.8084,4.103696 -1.46002,13.841054 2.77867,11.741237 6.91716,-3.57816 3.84048,9.852573 4.4794,16.959563 0.20088,18.70841 -0.18528,37.89234 -0.93421,56.2601 1.77777,3.94557 6.5888,0.0702 9.60547,1.16089 3.44862,-0.98571 7.91848,2.11444 10.75546,-0.54937 0.79084,-8.14826 -0.92169,-17.72778 -0.54567,-26.5397 -0.16458,-15.76141 -0.0363,-31.528 -0.0771,-47.291483 5.63718,0 11.27436,0 16.91155,0 -0.013,24.349553 0.19506,49.144433 -0.59885,73.219663 1.68132,3.92328 6.35734,0.0774 9.27011,1.16089 3.37438,-0.98706 7.73619,2.11054 10.51592,-0.54937 0.85434,-8.08464 -0.76279,-17.71198 -0.34772,-26.45838 -0.083,-15.78996 -0.0117,-31.58203 -0.0356,-47.372803 4.0615,-1.48335 10.19959,3.356937 13.031,-3.506064 1.06915,-4.768542 0.22473,-12.694105 -3.78474,-10.640496 -2.82247,-1.812439 -9.95781,4.093247 -9.34207,-3.83221 -0.34335,-9.614375 -2.22163,-24.990696 4.71894,-29.108483 3.82694,-3.210838 6.81095,2.778511 8.04856,8.153637 3.97125,1.577242 5.2828,-2.525033 5.34616,-8.544084 0.0221,-5.693262 2.18378,-11.063669 1.60051,-16.365277 -2.46091,-2.453316 -5.39994,-2.712381 -8.19228,-2.486859 z"
         id="path4262"
         inkscape:connector-curvature="0" />
      <path
         style="font-size:148.84379578px;font-style:normal;font-variant:normal;font-weight:bold;font-stretch:normal;text-align:start;line-height:100%;letter-spacing:0px;word-spacing:0px;writing-mode:lr-tb;text-anchor:start;fill:#75bc5c;fill-opacity:1;stroke:none;font-family:Linux Biolinum O;-inkscape-font-specification:Linux Biolinum O Bold"
         d="m 247.30146,77.418782 c -11.54045,0.284125 -22.8379,12.56655 -25.89431,32.125328 -3.86633,20.96001 0.64904,49.21271 13.55799,57.03469 12.66254,6.98345 28.48386,3.36377 37.12875,-15.125 0.52403,-4.95348 -2.28964,-13.27576 -5.29384,-7.74595 -6.59569,7.48775 -16.0632,8.39545 -22.97192,2.24225 -3.76706,-3.87377 -5.17486,-11.78073 -5.34175,-18.87567 10.52454,-0.0743 21.04857,0.0565 31.57142,0.36691 3.17912,-5.32638 0.94184,-14.50252 0.64676,-21.44406 -1.31406,-15.359973 -8.97066,-27.606336 -18.13321,-28.252352 -1.74651,-0.3247 -3.51369,-0.422401 -5.26989,-0.326146 z m 0.40722,14.880387 c 5.39782,1.311083 5.55163,13.629821 5.8927,20.832541 -4.7233,-0.35684 -10.42256,0.71132 -14.5401,-0.52998 0.57454,-8.39275 2.36709,-20.507461 8.6474,-20.302561 z"
         id="path4264"
         inkscape:connector-curvature="0" />
      <path
         style="font-size:148.84379578px;font-style:normal;font-variant:normal;font-weight:bold;font-stretch:normal;text-align:start;line-height:100%;letter-spacing:0px;word-spacing:0px;writing-mode:lr-tb;text-anchor:start;fill:#75bc5c;fill-opacity:1;stroke:none;font-family:Linux Biolinum O;-inkscape-font-specification:Linux Biolinum O Bold"
         d="m 317.51074,77.418782 c -6.37562,0.501806 -12.09802,6.549247 -16.38456,14.268865 -0.0369,-4.466775 0.71445,-14.804071 -3.5931,-13.371965 -4.8688,0.963327 -9.79566,0.747985 -14.68383,0.366914 -1.92656,6.25693 0.45003,14.072884 0.0131,21.238699 0.38439,21.911065 0.84395,44.331075 -1.01916,65.882915 1.71977,5.59039 6.54482,0.84203 9.65347,2.07917 3.4638,-1.27829 7.91567,2.81723 10.51583,-1.67149 -0.96659,-18.23078 -0.66855,-36.55353 -0.71862,-54.83321 3.19626,-6.42704 7.90414,-15.970004 13.43821,-13.086587 4.46895,7.233357 1.92172,19.834377 2.6589,29.067717 0.26783,13.06235 -0.40683,26.67558 -0.40722,39.38206 2.03122,3.85433 6.24178,-0.09 9.15044,1.10075 3.24176,-0.94387 7.6157,2.27032 10.18047,-0.61153 0.58963,-8.7733 -1.13212,-18.766 -0.75568,-28.21139 -0.95008,-16.7724 2.22867,-35.51263 -2.9572,-50.797349 -3.24393,-8.493518 -9.42779,-11.17666 -15.09104,-10.803569 z"
         id="path4266"
         inkscape:connector-curvature="0" />
      <path
         style="font-size:148.84379578px;font-style:normal;font-variant:normal;font-weight:bold;font-stretch:normal;text-align:start;line-height:100%;letter-spacing:0px;word-spacing:0px;writing-mode:lr-tb;text-anchor:start;fill:#75bc5c;fill-opacity:1;stroke:none;font-family:Linux Biolinum O;-inkscape-font-specification:Linux Biolinum O Bold"
         d="m 373.63505,77.418782 c -11.51933,0.249633 -22.84634,12.624793 -25.87036,32.125328 -3.77694,20.56713 0.4077,48.14532 12.91122,56.62701 12.79555,7.57151 28.96932,4.03756 37.77552,-14.71732 0.54647,-4.97071 -2.34084,-13.26076 -5.29384,-7.74595 -6.61429,7.42494 -15.99907,8.47516 -22.97192,2.24225 -3.79116,-3.93211 -5.17772,-11.65875 -5.34175,-18.87567 10.50855,-0.0727 21.01665,0.054 31.52351,0.36691 3.16067,-4.58436 1.00583,-13.04429 0.9342,-19.36488 -0.99319,-15.045985 -7.7942,-28.492213 -16.83968,-29.964619 -2.24584,-0.657244 -4.54688,-0.800836 -6.8269,-0.693059 z m 0.43117,14.880387 c 5.29171,1.247455 5.53157,13.335561 5.89269,20.506401 -4.34018,0.3505 -10.54519,0.92841 -14.56405,-0.28538 0.63649,-8.40263 2.40783,-20.454288 8.67136,-20.221021 z"
         id="path4268"
         inkscape:connector-curvature="0" />
    </g>
    <g
       id="g4317"
       style="fill:#399bff;fill-opacity:1"
       transform="matrix(3.6573848,0,0,3.8504869,676.56715,170.88062)">
      <path
         style="font-size:148.84379578px;font-style:normal;font-variant:normal;font-weight:bold;font-stretch:normal;text-align:start;line-height:100%;letter-spacing:0px;word-spacing:0px;writing-mode:lr-tb;text-anchor:start;fill:#399bff;fill-opacity:1;stroke:none;font-family:Linux Biolinum O;-inkscape-font-specification:Linux Biolinum O Bold"
         d="m 439.74819,37.995948 c -0.64627,9.467381 1.11446,20.205396 0.81443,30.249993 -0.0402,32.579069 0.84734,65.627819 -1.17374,97.884409 1.01794,4.90092 5.54074,0.82092 8.12041,1.7938 15.85411,-1.29529 33.69285,6.12067 47.66853,-9.9882 9.65946,-10.33857 12.34322,-35.27814 4.55404,-49.98473 -3.08555,-6.17118 -7.27646,-10.444621 -11.74025,-13.246728 6.97573,-7.254721 12.2047,-22.648349 8.24019,-36.405988 -4.65071,-17.715206 -17.52558,-21.903029 -27.8825,-21.484834 -9.37225,0.298133 -18.75795,1.078838 -28.12203,-0.08154 l -0.41556,1.096236 -0.0636,0.167578 z m 28.98438,14.309633 c 5.27741,-1.264461 8.93446,7.012065 8.67136,15.328837 0.51219,7.997804 0.21223,20.398427 -5.84478,21.566369 -3.84048,1.147676 -7.76503,0.394459 -11.64167,0.611523 0.42268,-11.607633 -0.76331,-23.791816 0.43118,-35.142175 2.23674,-3.034633 5.72045,-1.87918 8.38391,-2.364554 z m 0.21559,52.998639 c 6.36533,-1.00327 12.89788,6.52588 13.41426,17.89723 0.45393,8.63451 2.15951,21.98701 -3.44939,26.94777 -5.58076,3.24974 -12.26757,4.24083 -17.91761,0.85613 -2.58705,-4.97609 -0.29056,-13.11307 -1.07794,-19.12027 0,-8.86029 0,-17.72057 0,-26.58086 3.01023,0 6.02045,0 9.03068,0 z"
         id="path4270"
         inkscape:connector-curvature="0" />
      <path
         style="font-size:148.84379578px;font-style:normal;font-variant:normal;font-weight:bold;font-stretch:normal;text-align:start;line-height:100%;letter-spacing:0px;word-spacing:0px;writing-mode:lr-tb;text-anchor:start;fill:#399bff;fill-opacity:1;stroke:none;font-family:Linux Biolinum O;-inkscape-font-specification:Linux Biolinum O Bold"
         d="m 524.80897,31.391502 c -7.28864,-0.117438 -11.92809,16.000597 -7.21017,25.561652 4.47912,11.010313 15.92116,6.955565 17.199,-6.400605 1.34184,-10.188947 -3.92877,-20.018451 -9.98883,-19.161047 z m 7.97669,47.005717 c -5.41998,1.263471 -11.02395,1.135959 -16.50433,0.244609 -2.32607,5.564669 0.32755,13.318322 -0.23954,20.017178 0.23224,22.375684 0.84948,45.069034 -0.98212,67.226734 1.66517,5.20778 5.97854,0.75703 8.88695,1.95688 3.54945,-0.0637 7.10172,0.10749 10.63559,0.69305 2.01764,-6.29832 -0.47958,-14.41015 0,-21.60713 -0.44726,-21.9186 -0.23293,-43.97981 0.83839,-65.759085 -0.37271,-1.876437 -1.48978,-2.991839 -2.63494,-2.772236 z"
         id="path4272"
         inkscape:connector-curvature="0" />
      <path
         style="font-size:148.84379578px;font-style:normal;font-variant:normal;font-weight:bold;font-stretch:normal;text-align:start;line-height:100%;letter-spacing:0px;word-spacing:0px;writing-mode:lr-tb;text-anchor:start;fill:#399bff;fill-opacity:1;stroke:none;font-family:Linux Biolinum O;-inkscape-font-specification:Linux Biolinum O Bold"
         d="m 567.90228,27.273915 c -5.51095,3.016393 -11.12609,5.404128 -16.86364,6.359837 -1.8761,5.905228 0.44699,13.574753 0.10156,20.380892 0.54515,34.164083 0.5737,68.410616 -0.0393,102.572276 0.16352,4.68419 -2.04654,12.63892 1.99776,13.37564 4.33012,-1.25638 8.40959,-6.75282 12.86331,-2.6907 7.37843,3.73814 15.7047,3.59483 23.04378,-0.32614 17.30387,-10.14969 23.8424,-51.74755 13.07891,-76.23651 -7.79854,-15.819571 -23.02195,-17.698627 -32.48167,-5.096023 -0.30807,-18.5704 0.30667,-37.256152 1.22165,-55.648571 -0.30592,-2.100169 -1.72149,-3.334855 -2.92239,-2.690701 z m 10.92304,68.531318 c 7.69185,-0.02507 9.31546,15.744737 9.15044,25.969337 -0.38974,10.73364 0.23922,24.76971 -5.65315,31.5138 -3.75485,2.44519 -8.89491,2.61723 -12.12075,-1.63072 -1.59054,-12.07567 -0.0648,-25.03012 -0.59885,-37.38443 0.10406,-5.64753 -1.13664,-12.67723 2.9224,-14.676546 1.90514,-1.998221 3.97335,-3.934162 6.29991,-3.791441 z"
         id="path4274"
         inkscape:connector-curvature="0" />
      <path
         style="font-size:148.84379578px;font-style:normal;font-variant:normal;font-weight:bold;font-stretch:normal;text-align:start;line-height:100%;letter-spacing:0px;word-spacing:0px;writing-mode:lr-tb;text-anchor:start;fill:#399bff;fill-opacity:1;stroke:none;font-family:Linux Biolinum O;-inkscape-font-specification:Linux Biolinum O Bold"
         d="m 640.84232,77.418782 c -11.50492,0.228725 -22.83925,12.664965 -25.87036,32.125328 -3.76413,20.60531 0.40052,48.09979 12.91122,56.62701 12.75848,7.55019 28.94419,4.08269 37.77552,-14.71732 0.54049,-4.97708 -2.33636,-13.26981 -5.29385,-7.74595 -6.60795,7.43683 -16.02847,8.45642 -22.97192,2.24225 -3.8044,-3.93532 -5.17378,-11.72034 -5.34175,-18.87567 10.50856,-0.0729 21.01665,0.054 31.52351,0.36691 3.18314,-5.00618 0.99773,-13.88912 0.79574,-20.60723 -1.18312,-15.199822 -8.43102,-27.879407 -17.51565,-28.966878 -1.99295,-0.406089 -4.00632,-0.561797 -6.01246,-0.44845 z m 0.43117,14.880387 c 5.30465,1.245327 5.54377,13.379491 5.89269,20.506401 -4.34018,0.3505 -10.54519,0.92841 -14.56405,-0.28538 0.64423,-8.37489 2.37628,-20.422079 8.67136,-20.221021 z"
         id="path4276"
         inkscape:connector-curvature="0" />
      <path
         style="font-size:148.84379578px;font-style:normal;font-variant:normal;font-weight:bold;font-stretch:normal;text-align:start;line-height:100%;letter-spacing:0px;word-spacing:0px;writing-mode:lr-tb;text-anchor:start;fill:#399bff;fill-opacity:1;stroke:none;font-family:Linux Biolinum O;-inkscape-font-specification:Linux Biolinum O Bold"
         d="m 693.61306,27.273915 c -5.46819,2.992373 -10.96671,5.451491 -16.64806,6.359837 -1.87609,5.905228 0.44699,13.574753 0.10157,20.380892 0.50322,32.669704 0.69283,65.438146 -0.19739,98.091456 0.19328,5.53452 -1.56568,11.21359 -0.23954,16.42957 6.43408,-0.85763 12.89559,-0.86373 19.33091,-0.0408 2.01946,-6.26823 -0.5567,-14.32814 -0.11977,-21.44406 -0.44373,-33.32314 -0.65589,-66.734981 0.11977,-100.045129 -0.56686,-6.050979 2.51026,-13.815256 -0.0479,-18.916437 -0.62053,-0.825581 -1.53651,-1.272035 -2.29958,-0.815364 z"
         id="path4278"
         inkscape:connector-curvature="0" />
    </g>
  </g>
</svg>
