<?xml version="1.0" encoding="UTF-8" standalone="no"?>
<!-- Created using Karbon, part of Calligra: http://www.calligra.org/karbon -->

<svg
   xmlns:dc="http://purl.org/dc/elements/1.1/"
   xmlns:cc="http://creativecommons.org/ns#"
   xmlns:rdf="http://www.w3.org/1999/02/22-rdf-syntax-ns#"
   xmlns:svg="http://www.w3.org/2000/svg"
   xmlns="http://www.w3.org/2000/svg"
   xmlns:sodipodi="http://sodipodi.sourceforge.net/DTD/sodipodi-0.dtd"
   xmlns:inkscape="http://www.inkscape.org/namespaces/inkscape"
   width="614.43536"
   height="792.10229"
   id="svg2"
   version="1.1"
   inkscape:version="0.48.4 r9939"
   sodipodi:docname="svg_logo_keine_schrift.svg">
  <metadata
     id="metadata50">
    <rdf:RDF>
      <cc:Work
         rdf:about="">
        <dc:format>image/svg+xml</dc:format>
        <dc:type
           rdf:resource="http://purl.org/dc/dcmitype/StillImage" />
      </cc:Work>
    </rdf:RDF>
  </metadata>
  <sodipodi:namedview
     pagecolor="#ffffff"
     bordercolor="#666666"
     borderopacity="1"
     objecttolerance="10"
     gridtolerance="10"
     guidetolerance="10"
     inkscape:pageopacity="0"
     inkscape:pageshadow="2"
     inkscape:window-width="1280"
     inkscape:window-height="969"
     id="namedview48"
     showgrid="false"
     fit-margin-top="0"
     fit-margin-left="0"
     fit-margin-right="0"
     fit-margin-bottom="0"
     inkscape:zoom="0.22425732"
     inkscape:cx="304.818"
     inkscape:cy="468.12517"
     inkscape:window-x="-3"
     inkscape:window-y="-3"
     inkscape:window-maximized="1"
     inkscape:current-layer="svg2" />
  <defs
     id="defs4" />
  <g
     id="layer1"
     transform="translate(-67.229487,-202.20413)">
    <g
       id="g4369"
       transform="translate(66.6045,201.58)"
       style="fill:none">
      <g
         id="g4156"
         transform="translate(2.93228e-6,29.6653)"
         style="fill:none">
        <path
           id="path3338"
           transform="translate(0.624985,0.624921)"
           d="M 8.80344,9.01277 C 14.0953,8.30933 32.451,7.56943 48.2175,5.94087 63.9839,4.31231 80.3729,1.5983 85.7589,0.752977 88.7192,0.288357 95.8604,-2.27748 95.8604,5.80374 c 0,8.08126 0.5051,56.06346 0.5051,56.06346 0,0 0,6.3568 -5.5559,6.8619 -5.5558,0.505 -82.68455,0.1785 -82.68455,0.1785 0,0 -7.00979,-1.306 -7.724077,-5.9129 C -0.140722,59.5009 0.0125251,23.9412 0.0438301,15.0737 0.0534301,12.3587 3.76216,9.6829 8.80344,9.01277 z"
           inkscape:connector-curvature="0"
           style="fill:#c5e0bd" />
        <path
           id="path4403"
           transform="translate(0.624985,153.584)"
           d="M 91.8271,11.7647 C 60.5187,3.91352 26.0472,0 8.36955,0 4.44188,0 0.995382,2.27434 0.645472,5.10941 0.144969,9.16464 -0.153513,41.8431 0.0817489,47.6251 0.238793,51.4848 1.34825,55.9352 7.45131,56.5685 30.1696,58.926 61.1019,67.3743 89.7481,77.6032 c 3.4922,1.247 6.4748,-0.4669 6.8339,-2.5867 0.7904,-4.6662 -0.047,-51.2371 0.1173,-59.0939 0.0446,-2.1346 -1.7291,-3.3697 -4.8722,-4.1579 z"
           inkscape:connector-curvature="0"
           style="fill:#c5e0bd" />
        <path
           id="path4405"
           transform="translate(0.624984,222.314)"
           d="M 7.00881,2.87314e-4 C 20.9015,0.366407 71.5724,13.0809 88.2129,21.6597 c 4.4078,2.2725 5.6249,4.375 5.8928,6.3393 0.2172,1.5924 0.2679,55.4464 0.2679,57.9464 0,2.5 -2.9284,3.4112 -5.9975,1.8687 C 53.7731,70.4233 40.6346,64.2937 4.55213,56.3026 0.939562,55.5025 0.26642,54.1597 0.0878487,52.9097 c -0.178572,-1.25 -0.03546,-46.95357 0,-48.39282 C 0.140149,2.39383 2.4885,-0.0303427 7.00881,2.87314e-4 z"
           inkscape:connector-curvature="0"
           style="fill:#c5e0bd" />
        <path
           id="path2988"
           transform="translate(0.624985,294.126)"
           d="M 6.52038,0.0266872 C 32.502,1.00542 79.221,23.3016 88.9311,30.0713 c 6.3393,4.4197 6.875,8.259 6.9643,11.5625 0.1061,3.9272 -0.1117,56.0705 0.0447,59.8212 0.067,1.607 -2.3129,1.257 -3.3929,0.357 C 63.9103,77.9545 29.9597,62.3871 6.65436,57.8838 3.85179,57.3423 0.0472193,54.7082 0.0156523,51.9684 -0.0275477,48.2186 0.0306123,6.08353 0.0472223,3.41954 0.0679823,0.0906072 3.1985,-0.0984528 6.52038,0.0266872 z"
           inkscape:connector-curvature="0"
           style="fill:#c5e0bd" />
        <path
           id="path2988-5"
           transform="translate(0.624985,364.214)"
           d="m 88.8862,41.5648 c 5.4386,5.4901 6.875,8.259 6.9642,11.5625 0.1062,3.9272 -0.1116,53.3917 0.0447,57.1427 0.067,1.607 -1.0013,2.438 -3.3928,0.357 C 62.4296,84.4593 41.1647,68.8806 6.60943,56.6988 3.9174,55.7497 0.180854,53.7017 0.149294,50.9619 0.106094,47.2121 -0.0184771,6.05176 0.00232295,3.69876 0.0228229,1.37057 1.21064,-0.274259 4.68982,0.0380512 29.7623,2.28871 72.4569,26.0023 88.8862,41.5648 z"
           inkscape:connector-curvature="0"
           style="fill:#c5e0bd" />
        <path
           id="path2988-5-9"
           transform="translate(0.624985,431.891)"
           d="m 89.9576,54.7919 c 3.379,4.377 4.1964,5.9375 4.2857,9.241 0.1061,3.9272 -0.1116,53.3921 0.0447,57.1431 0.067,1.607 -1.2021,2.648 -3.3929,0.357 C 63.1439,92.5077 40.9862,71.2148 6.60943,56.8901 3.97461,55.7921 0.180854,53.893 0.149294,51.1532 0.106094,47.4034 -0.0184771,6.24307 0.00232295,3.89007 0.0228229,1.56188 0.938295,-0.574474 5.22554,0.140076 29.2047,4.13664 70.1603,32.017 89.9576,54.7919 z"
           inkscape:connector-curvature="0"
           style="fill:#c5e0bd" />
      </g>
      <g
         id="g4239"
         transform="translate(517.51,29.6653)"
         style="fill:none">
        <path
           id="path3338-30"
           transform="translate(1.18456,0.624921)"
           d="M 87.562,9.01277 C 82.2701,8.30933 63.9145,7.56943 48.148,5.94087 32.3815,4.31231 15.9926,1.5983 10.6066,0.752977 7.64627,0.288357 0.50507,-2.27748 0.50507,5.80374 0.50507,13.885 0,61.8672 0,61.8672 c 0,0 0,6.3568 5.55584,6.8619 5.55586,0.505 82.68456,0.1785 82.68456,0.1785 0,0 7.0098,-1.306 7.7241,-5.9129 0.5417,-3.4938 0.3884,-39.0535 0.3571,-47.921 -0.01,-2.715 -3.7183,-5.3908 -8.7596,-6.06093 z"
           inkscape:connector-curvature="0"
           style="fill:#75bc5c" />
        <path
           id="path4403-6"
           transform="translate(0.622835,153.584)"
           d="M 5.10013,11.7647 C 36.4085,3.91352 70.88,0 88.5576,0 c 3.9277,0 7.3742,2.27434 7.7241,5.10941 0.5005,4.05523 0.799,36.73369 0.5637,42.51569 -0.157,3.8597 -1.2665,8.3101 -7.3695,8.9434 C 66.7576,58.926 35.8253,67.3743 7.17908,77.6032 3.68687,78.8502 0.704327,77.1363 0.345227,75.0165 -0.445243,70.3503 0.392227,23.7794 0.227937,15.9226 0.183337,13.788 1.957,12.5529 5.10013,11.7647 z"
           inkscape:connector-curvature="0"
           style="fill:#75bc5c" />
        <path
           id="path4405-55"
           transform="translate(3.17646,222.314)"
           d="M 87.3648,2.87314e-4 C 73.4721,0.366407 22.8012,13.0809 6.16071,21.6597 1.75282,23.9322 0.53572,26.0347 0.26786,27.999 0.05071,29.5914 0,83.4454 0,85.9454 c 0,2.5 2.92838,3.4112 5.99746,1.8687 C 40.6004,70.4233 53.7389,64.2937 89.8214,56.3026 c 3.6126,-0.8001 4.2857,-2.1429 4.4643,-3.3929 0.1786,-1.25 0.0355,-46.95357 0,-48.39282 C 94.2334,2.39383 91.8851,-0.0303427 87.3648,2.87314e-4 z"
           inkscape:connector-curvature="0"
           style="fill:#75bc5c" />
        <path
           id="path2988-0"
           transform="translate(1.60856,294.126)"
           d="M 89.4211,0.0266872 C 63.4395,1.00542 16.7205,23.3016 7.01037,30.0713 0.671086,34.491 0.135366,38.3303 0.0460857,41.6338 -0.0600543,45.561 0.157726,97.7043 0.00138568,101.455 -0.0656143,103.062 2.31432,102.712 3.39425,101.812 32.0312,77.9545 65.9818,62.3871 89.2871,57.8838 92.0897,57.3423 95.8942,54.7082 95.9258,51.9684 95.969,48.2186 95.9108,6.08353 95.8942,3.41954 95.8734,0.0906072 92.7429,-0.0984528 89.4211,0.0266872 z"
           inkscape:connector-curvature="0"
           style="fill:#75bc5c" />
        <path
           id="path2988-5-7"
           transform="translate(1.65192,364.214)"
           d="M 7.01194,41.5648 C 1.57333,47.0549 0.136941,49.8238 0.0476606,53.1273 -0.0584794,57.0545 0.159301,106.519 0.00296058,110.27 -0.0640394,111.877 1.00431,112.708 3.39582,110.627 33.4685,84.4593 54.7334,68.8806 89.2887,56.6988 91.9807,55.7497 95.7173,53.7017 95.7488,50.9619 95.792,47.2121 95.9166,6.05176 95.8958,3.69876 95.8753,1.37057 94.6875,-0.274259 91.2083,0.0380512 66.1358,2.28871 23.4413,26.0023 7.01194,41.5648 z"
           inkscape:connector-curvature="0"
           style="fill:#75bc5c" />
        <path
           id="path2988-5-9-4"
           transform="translate(3.25949,431.891)"
           d="m 4.33294,54.7919 c -3.378964,4.377 -4.196434,5.9375 -4.2857136,9.241 -0.10614,3.9272 0.1116396,53.3921 -0.04469996,57.1431 C -0.0644736,122.783 1.20461,123.824 3.39539,121.533 31.1467,92.5077 53.3044,71.2148 87.6811,56.8901 90.3159,55.7921 94.1097,53.893 94.1412,51.1532 94.1844,47.4034 94.309,6.24307 94.2882,3.89007 94.2677,1.56188 93.3522,-0.574474 89.065,0.140076 65.0858,4.13664 24.1303,32.017 4.33294,54.7919 z"
           inkscape:connector-curvature="0"
           style="fill:#75bc5c" />
      </g>
      <g
         id="g4193"
         style="fill:none">
        <path
           id="path3340"
           transform="translate(0.624988,113.282)"
           d="M 7.73794,0.17857 91.1308,0 c 0,0 5,0 5.1786,5.53572 0.1785,5.53568 -0.1786,59.10718 -0.1786,59.10718 0,0 -1.0734,6.1242 -9.2857,4.2857 C 70.6019,65.2922 36.4895,61.0609 9.59762,60.7143 6.32804,60.6722 0.0544462,58.4058 0.00706517,53.0103 -0.0547948,45.966 0.311944,12.0096 0.237938,6.42857 0.194788,3.17459 1.84239,0.19119 7.73794,0.17857 z"
           inkscape:connector-curvature="0"
           style="fill:#399bff" />
        <path
           id="path3340-7"
           transform="translate(128.089,113.282)"
           d="m 8.19611,0.179394 c 3.81719,0.009 62.57329,0.009 78.95089,-0.17856987 5.5227,-0.06320003 9,3.51785587 9.1786,7.53571587 0.2459,5.53316 0.054,69.10406 0.1263,77.72456 0.0286,3.4089 -4.3581,6.157 -10.2679,5 C 77.4486,88.5508 20.5617,79.6541 9.48758,78.2254 5.56054,77.7187 0.291161,74.0825 0.112591,70.3325 -0.228859,63.1621 0.321621,15.2661 0.254171,8.42939 0.212071,4.16504 3.69221,0.168564 8.19611,0.179394 z"
           inkscape:connector-curvature="0"
           style="fill:#399bff" />
        <path
           id="rect3188"
           transform="translate(259.608,0.624132)"
           d="m 14.4021,1.88229 c 23.2158,-2.479222 43.4369,-2.540032 67.6654,0 7.927,0.90698 14.4021,6.42334 14.4021,14.40211 l 0,69.9179 c 0,7.9788 -6.4234,12.4021 -14.4021,12.4021 l -67.6654,0 C 6.42333,98.6044 0,94.1811 0,86.2023 L 0,16.2844 C 0,8.30563 6.42333,2.51364 14.4021,1.88229 z"
           inkscape:connector-curvature="0"
           style="fill:#399bff" />
        <path
           id="rect3188-8"
           transform="translate(259.608,113.282)"
           d="m 14.4021,96.7221 c 23.2158,2.4793 43.4369,2.5401 67.6654,0 7.927,-0.9069 14.4021,-6.4233 14.4021,-14.4021 l 0,-69.9179 C 96.4696,4.42334 90.0462,0 82.0675,0 L 14.4021,0 C 6.42333,0 0,4.42334 0,12.4021 L 0,82.32 c 0,7.9788 6.42333,13.7708 14.4021,14.4021 z"
           inkscape:connector-curvature="0"
           style="fill:#399bff" />
        <path
           id="rect3188-8-8"
           transform="translate(259.608,228.058)"
           d="m 12.4021,96.1573 c 23.2158,2.4792 47.4369,2.54 71.6654,0 7.927,-0.907 12.4021,-6.4234 12.4021,-14.4021 l 0,-69.918 C 96.4696,3.85848 92.0085,-0.639961 84.0675,0.135569 60.3754,2.4494 33.7384,2.86575 12.4021,0.135569 4.48787,-0.877121 0,3.85848 0,11.8372 l 0,69.918 c 0,7.9787 4.42333,13.7707 12.4021,14.4021 z"
           inkscape:connector-curvature="0"
           style="fill:#399bff" />
        <path
           id="rect3188-8-8-9"
           transform="translate(259.608,342.712)"
           d="m 14.4021,96.2039 c 23.2158,2.4792 43.4369,2.54 67.6654,0 7.927,-0.907 14.4021,-6.4233 14.4021,-14.4021 l 0,-69.9179 C 96.4696,3.90511 91.816,-1.52111 84.0675,0.381685 57.4229,6.92475 32.3876,4.49304 12.4021,0.381685 4.58699,-1.226 0,3.90511 0,11.8839 l 0,69.9179 c 0,7.9788 6.42333,13.7707 14.4021,14.4021 z"
           inkscape:connector-curvature="0"
           style="fill:#399bff" />
        <path
           id="rect3188-8-8-3"
           transform="translate(259.608,458.225)"
           d="m 14.4021,97.1196 c 26.0842,5.0784 45.9492,4.8974 67.6654,0 7.7833,-1.7552 14.4021,-8.4234 14.4021,-16.4022 l 0,-67.9179 c 0,-7.97874 -2.7045,-14.50152 -10.4021,-12.402077 -23.26,6.343897 -53.7517,5.772337 -75.6654,0 C 2.68652,-1.63495 0,4.82076 0,12.7995 L 0,80.7174 C 0,88.6962 6.5459,95.59 14.4021,97.1196 z"
           inkscape:connector-curvature="0"
           style="fill:#399bff" />
        <path
           id="rect3188-8-8-6"
           transform="translate(259.608,571.081)"
           d="m 12.4021,99.2639 c 23.435,5.9861 47.2092,7.2471 71.6654,0 7.65,-2.2668 12.4021,-8.4233 12.4021,-16.4021 l 0,-67.9179 C 96.4696,6.96512 95.5799,-2.14605 88.0675,0.541778 62.5192,9.68257 33.277,10.2536 8.4021,0.541778 0.96971,-2.36001 0,6.96512 0,14.9439 l 0,67.9179 c 0,7.9788 4.64737,14.4214 12.4021,16.4021 z"
           inkscape:connector-curvature="0"
           style="fill:#399bff" />
        <path
           id="rect3188-8-8-0"
           transform="translate(259.608,686.906)"
           d="m 50.2274,105.819 c 21.4257,0.113 46.2422,-6.3627 46.2422,-26.2107 l 0,-69.91791 c 0,-7.97876 -1.2333,-11.90473 -8.4021,-8.4021 -23.584,11.52291 -55.9762,11.58821 -79.6654,0 C 1.23492,-2.21773 0,1.71163 0,9.69039 L 0,79.6083 c 0,19.5993 28.8016,26.0977 50.2274,26.2107 z"
           inkscape:connector-curvature="0"
           style="fill:#399bff" />
        <path
           id="path3340-4"
           transform="translate(518.701,113.282)"
           d="M 88.6214,0.17857 5.22857,0 c 0,0 -5,0 -5.1785704,5.53572 C -0.12857,11.0714 0.22857,64.6429 0.22857,64.6429 c 0,0 1.07337,6.1242 9.28571,4.2857 16.24322,-3.6364 50.35552,-7.8677 77.24742,-8.2143 3.2696,-0.0421 9.5432,-2.3085 9.5906,-7.704 0.0619,-7.0443 -0.3049,-41.0007 -0.2309,-46.58173 0.0431,-3.25398 -1.6044,-6.23738 -7.5,-6.25 z"
           inkscape:connector-curvature="0"
           style="fill:#399bff" />
        <path
           id="path3340-7-4"
           transform="translate(391.14,113.282)"
           d="M 88.2597,0.179394 C 84.4425,0.188394 25.6864,0.188394 9.30876,8.2413e-4 3.78607,-0.0623759 0.308757,3.51868 0.130187,7.53654 -0.115733,13.0697 0.0761869,76.6406 0.00391691,85.2611 -0.0246831,88.67 4.36199,91.4181 10.2718,90.2611 19.0072,88.5508 75.894,79.6541 86.9682,78.2254 c 3.927,-0.5067 9.1964,-4.1429 9.375,-7.8929 0.3414,-7.1704 -0.209,-55.0664 -0.1416,-61.90311 0.0421,-4.26435 -3.438,-8.260826 -7.9419,-8.249996 z"
           inkscape:connector-curvature="0"
           style="fill:#399bff" />
      </g>
      <g
         id="g4247"
         transform="translate(126.857,8.55282)"
         style="fill:none">
        <path
           id="path3338-3"
           transform="translate(1.34766,0.616131)"
           d="M 9.59953,11.7362 C 36.8525,7.55159 58.1974,4.17912 86.2393,0.262135 c 3.73,-0.50916 10.1015,-0.8876 10.1015,5.050755 0,8.08121 -0.5664,77.84921 -0.5664,77.84921 0,0 -0.8716,6.7264 -6.4487,6.8618 -6.0915,0.148 -80.3631,-0.1785 -80.3631,-0.1785 0,0 -8.081214,-0.4132 -8.438364,-5.913 -0.22911,-3.5281 -0.74397,-55.4283 -0.42028,-63.7993 0.0956,-2.4711 3.372934,-7.4424 9.495574,-8.3969 z"
           inkscape:connector-curvature="0"
           style="fill:#c5e0bd" />
        <path
           id="path4403-9"
           transform="translate(1.22482,195.391)"
           d="M 91.5921,19.1223 C 61.66,11.4856 24.2633,2.93321 7.4785,0.0760686 3.60653,-0.583021 0.159699,3.17862 0.0669294,6.03369 c -0.14336,4.41241 -0.0169,54.31001 0.0166,60.09671 C 0.114329,71.4422 3.52145,75.8679 8.21071,77.9149 29.0057,86.9926 65.3785,101.516 87.9821,108.487 c 4.2317,1.306 8.462,-1.131 8.4754,-3.281 0.0329,-5.2974 -0.0769,-77.7221 -0.0721,-80.8209 0.003,-1.9757 -1.5533,-4.4361 -4.7933,-5.2628 z"
           inkscape:connector-curvature="0"
           style="fill:#c5e0bd" />
        <path
           id="path4405-5"
           transform="translate(1.6937,284.166)"
           d="M 5.99867,0.502993 C 23.7708,9.44789 64.0103,26.0735 88.593,35.5541 c 4.627,1.7845 6.8877,5.2589 7.1556,7.2232 0.2171,1.5924 0.2462,76.6457 0.2462,79.1457 0,2.5 -4.1121,5.269 -7.1339,3.636 C 53.8791,106.653 32.1746,93.9487 4.42588,73.5832 1.44293,71.394 0.266428,67.6523 0.0878581,66.4023 c -0.17857,-1.25 -0.0355,-60.95362 0,-62.39287 C 0.140158,1.88638 2.56455,-1.22544 5.99867,0.502993 z"
           inkscape:connector-curvature="0"
           style="fill:#c5e0bd" />
        <path
           id="path2988-3"
           transform="translate(0.798671,371.486)"
           d="M 5.98318,1.0804 C 26.1931,15.6941 63.6744,40.7283 90.1783,54.6953 c 6.8366,3.6028 6.6085,8.769 6.6977,12.0726 0.1062,3.9271 -0.4345,69.9951 -0.5235,73.6751 -0.0803,3.32 -3.0712,4.541 -5.9814,2.693 C 58.3622,122.811 25.3937,92.6078 3.32918,72.5252 -0.151657,69.357 0.239623,64.3844 0.208063,62.0865 0.156563,58.3369 -0.0154765,5.75331 0.00112345,3.08932 -0.0625765,0.565458 2.74799,-1.25895 5.98318,1.0804 z"
           inkscape:connector-curvature="0"
           style="fill:#c5e0bd" />
        <path
           id="path2988-5-98"
           transform="translate(0.624979,463.624)"
           d="m 90.0007,72.6384 c 5.4386,5.4901 6.875,8.259 6.9643,11.5625 0.1061,3.9272 0.2029,72.8691 -0.1428,76.6071 -0.3641,3.937 -4.9593,4.145 -7.8125,1.696 C 59.5706,137.244 23.2805,98.8257 3.84002,72.0134 2.00565,69.4835 0.268575,65.7128 0.326305,62.348 0.390605,58.5985 -0.0200347,6.41108 7.6529e-4,4.05808 0.0212653,1.72989 2.2976,-1.57045 4.8222,0.843799 23.4215,18.6302 68.5714,56.5222 90.0007,72.6384 z"
           inkscape:connector-curvature="0"
           style="fill:#c5e0bd" />
        <path
           id="path2988-5-9-3"
           transform="translate(1.30252,556.781)"
           d="m 90.4193,91.4807 c 3.379,4.377 5.2066,7.7052 5.2959,11.0093 0.1061,3.927 0.5134,74.9 0.6697,78.651 0.067,1.607 -3.1217,3.408 -5.3125,1.116 C 63.3211,153.232 30.6318,112.943 6.8786,79.0211 4.84227,76.113 0.345418,68.8484 0.313858,65.0371 0.282858,61.2872 0.097948,9.24226 0.032958,6.89006 -0.125112,1.16901 0.087958,-3.2392 5.25618,3.14007 19.8708,21.1792 65.5712,70.9787 90.4193,91.4807 z"
           inkscape:connector-curvature="0"
           style="fill:#c5e0bd" />
      </g>
      <g
         id="g4218"
         transform="translate(390.515,8.55282)"
         style="fill:none">
        <path
           id="path3338-3-4"
           transform="translate(0.625,0.616131)"
           d="M 86.7413,11.7362 C 59.4883,7.55159 38.1434,4.17912 10.1015,0.262135 6.3715,-0.247025 0,-0.625465 0,5.31289 0,13.3941 0.56636,83.1621 0.56636,83.1621 c 0,0 0.87159,6.7264 6.44869,6.8618 6.09155,0.148 80.36315,-0.1785 80.36315,-0.1785 0,0 8.0812,-0.4132 8.4384,-5.913 0.2291,-3.5281 0.7439,-55.4283 0.4202,-63.7993 -0.0956,-2.4711 -3.3729,-7.4424 -9.4955,-8.3969 z"
           inkscape:connector-curvature="0"
           style="fill:#75bc5c" />
        <path
           id="path4403-9-0"
           transform="translate(0.624998,195.391)"
           d="M 4.87151,19.1223 C 34.8037,11.4856 72.2003,2.93321 88.9851,0.0760686 92.8571,-0.583021 96.3039,3.17862 96.3967,6.03369 96.5401,10.4461 96.4136,60.3437 96.3801,66.1304 96.3493,71.4422 92.9422,75.8679 88.2529,77.9149 67.4579,86.9926 31.0851,101.516 8.48151,108.487 4.24983,109.793 0.0194915,107.356 0.00616155,105.206 -0.0267385,99.9086 0.0830615,27.4839 0.0782615,24.3851 0.0752615,22.4094 1.63149,19.949 4.87153,19.1223 z"
           inkscape:connector-curvature="0"
           style="fill:#75bc5c" />
        <path
           id="path4405-5-1"
           transform="translate(0.625,284.166)"
           d="M 89.9961,0.502993 C 72.224,9.44789 31.9844,26.0735 7.40173,35.5541 2.77473,37.3386 0.51405,40.813 0.24619,42.7773 0.02904,44.3697 0,119.423 0,121.923 c 0,2.5 4.11208,5.269 7.13388,3.636 C 42.1157,106.653 63.8201,93.9487 91.5689,73.5832 c 2.9829,-2.1892 4.1594,-5.9309 4.338,-7.1809 0.1786,-1.25 0.0355,-60.95362 0,-62.39287 -0.0523,-2.12305 -2.4767,-5.23487 -5.9108,-3.506437 z"
           inkscape:connector-curvature="0"
           style="fill:#75bc5c" />
        <path
           id="path2988-3-6"
           transform="translate(0.625006,371.486)"
           d="m 90.9066,1.0804 c -20.21,14.6137 -57.6912,39.6479 -84.19512,53.6149 -6.836646,3.6028 -6.608456,8.769 -6.6977356,12.0726 -0.10614,3.9271 0.4344996,69.9951 0.5235096,73.6751 0.0803,3.32 3.071256,4.541 5.981376,2.693 C 38.5276,122.811 71.4961,92.6078 93.5606,72.5252 97.0414,69.357 96.6502,64.3844 96.6817,62.0865 96.7332,58.3369 96.9053,5.75331 96.8887,3.08932 96.9524,0.565458 94.1418,-1.25895 90.9066,1.0804 z"
           inkscape:connector-curvature="0"
           style="fill:#75bc5c" />
        <path
           id="path2988-5-98-5"
           transform="translate(0.625005,463.624)"
           d="m 7.06278,72.6384 c -5.43861,5.4901 -6.874995,8.259 -6.964275,11.5625 -0.10614004,3.9272 -0.20295,72.8691 0.1428,76.6071 0.36411,3.937 4.959225,4.145 7.812495,1.696 C 37.4929,137.244 73.783,98.8257 93.2235,72.0134 95.0578,69.4835 96.7949,65.7128 96.7372,62.348 96.6729,58.5985 97.0835,6.41108 97.0627,4.05808 97.0422,1.72989 94.7659,-1.57045 92.2413,0.843799 73.642,18.6302 28.4921,56.5222 7.06278,72.6384 z"
           inkscape:connector-curvature="0"
           style="fill:#75bc5c" />
        <path
           id="path2988-5-9-3-8"
           transform="translate(0.625001,556.781)"
           d="m 5.9666,91.4807 c -3.37896,4.377 -5.206581,7.7052 -5.295861,11.0093 -0.10614,3.927 -0.51336,74.9 -0.66970022,78.651 C -0.0659612,182.748 3.12276,184.549 5.31354,182.257 33.0648,153.232 65.7541,112.943 89.5073,79.0211 91.5437,76.113 96.0405,68.8484 96.0721,65.0371 96.1031,61.2872 96.288,9.24226 96.353,6.89006 96.511,1.16901 96.298,-3.2392 91.1298,3.14007 76.5152,21.1792 30.8147,70.9787 5.9666,91.4807 z"
           inkscape:connector-curvature="0"
           style="fill:#75bc5c" />
      </g>
    </g>
  </g>
</svg>
