<?xml version="1.0" encoding="UTF-8" standalone="no"?>
<!-- Created with Inkscape (http://www.inkscape.org/) -->

<svg
   xmlns:dc="http://purl.org/dc/elements/1.1/"
   xmlns:cc="http://creativecommons.org/ns#"
   xmlns:rdf="http://www.w3.org/1999/02/22-rdf-syntax-ns#"
   xmlns:svg="http://www.w3.org/2000/svg"
   xmlns="http://www.w3.org/2000/svg"
   xmlns:sodipodi="http://sodipodi.sourceforge.net/DTD/sodipodi-0.dtd"
   xmlns:inkscape="http://www.inkscape.org/namespaces/inkscape"
   width="309.63361"
   height="385.61121"
   id="svg2"
   version="1.1"
   inkscape:version="0.48.4 r9939"
   sodipodi:docname="versions.svg"
   inkscape:export-filename="/home/patrick/Documents/offeneBibel/repos/logos/versions.png"
   inkscape:export-xdpi="176.93193"
   inkscape:export-ydpi="176.93193">
  <defs
     id="defs4">
    <marker
       inkscape:stockid="TriangleOutL"
       orient="auto"
       refY="0"
       refX="0"
       id="TriangleOutL"
       style="overflow:visible">
      <path
         id="path4064"
         d="m 5.77,0 -8.65,5 0,-10 8.65,5 z"
         style="fill-rule:evenodd;stroke:#000000;stroke-width:1pt"
         transform="scale(0.8,0.8)"
         inkscape:connector-curvature="0" />
    </marker>
    <marker
       inkscape:stockid="Arrow2Lend"
       orient="auto"
       refY="0"
       refX="0"
       id="Arrow2Lend"
       style="overflow:visible">
      <path
         id="path3943"
         style="fill-rule:evenodd;stroke-width:0.625;stroke-linejoin:round"
         d="M 8.7185878,4.0337352 -2.2072895,0.01601326 8.7185884,-4.0017078 c -1.7454984,2.3720609 -1.7354408,5.6174519 -6e-7,8.035443 z"
         transform="matrix(-1.1,0,0,-1.1,-1.1,0)"
         inkscape:connector-curvature="0" />
    </marker>
    <marker
       inkscape:stockid="Arrow1Lstart"
       orient="auto"
       refY="0"
       refX="0"
       id="Arrow1Lstart"
       style="overflow:visible">
      <path
         id="path3922"
         d="M 0,0 5,-5 -12.5,0 5,5 0,0 z"
         style="fill-rule:evenodd;stroke:#000000;stroke-width:1pt"
         transform="matrix(0.8,0,0,0.8,10,0)"
         inkscape:connector-curvature="0" />
    </marker>
    <marker
       inkscape:stockid="Arrow1Lend"
       orient="auto"
       refY="0"
       refX="0"
       id="Arrow1Lend"
       style="overflow:visible">
      <path
         id="path3925"
         d="M 0,0 5,-5 -12.5,0 5,5 0,0 z"
         style="fill-rule:evenodd;stroke:#000000;stroke-width:1pt"
         transform="matrix(-0.8,0,0,-0.8,-10,0)"
         inkscape:connector-curvature="0" />
    </marker>
    <marker
       inkscape:stockid="Arrow2Lend"
       orient="auto"
       refY="0"
       refX="0"
       id="Arrow2Lend-2"
       style="overflow:visible">
      <path
         inkscape:connector-curvature="0"
         id="path3943-8"
         style="fill-rule:evenodd;stroke-width:0.625;stroke-linejoin:round"
         d="M 8.7185878,4.0337352 -2.2072895,0.01601326 8.7185884,-4.0017078 c -1.7454984,2.3720609 -1.7354408,5.6174519 -6e-7,8.035443 z"
         transform="matrix(-1.1,0,0,-1.1,-1.1,0)" />
    </marker>
    <marker
       inkscape:stockid="Arrow2Lend"
       orient="auto"
       refY="0"
       refX="0"
       id="Arrow2Lend-1"
       style="overflow:visible">
      <path
         inkscape:connector-curvature="0"
         id="path3943-0"
         style="fill-rule:evenodd;stroke-width:0.625;stroke-linejoin:round"
         d="M 8.7185878,4.0337352 -2.2072895,0.01601326 8.7185884,-4.0017078 c -1.7454984,2.3720609 -1.7354408,5.6174519 -6e-7,8.035443 z"
         transform="matrix(-1.1,0,0,-1.1,-1.1,0)" />
    </marker>
    <marker
       inkscape:stockid="Arrow2Lend"
       orient="auto"
       refY="0"
       refX="0"
       id="Arrow2Lend-5"
       style="overflow:visible">
      <path
         inkscape:connector-curvature="0"
         id="path3943-84"
         style="fill-rule:evenodd;stroke-width:0.625;stroke-linejoin:round"
         d="M 8.7185878,4.0337352 -2.2072895,0.01601326 8.7185884,-4.0017078 c -1.7454984,2.3720609 -1.7354408,5.6174519 -6e-7,8.035443 z"
         transform="matrix(-1.1,0,0,-1.1,-1.1,0)" />
    </marker>
  </defs>
  <sodipodi:namedview
     id="base"
     pagecolor="#ffffff"
     bordercolor="#666666"
     borderopacity="1.0"
     inkscape:pageopacity="0.0"
     inkscape:pageshadow="2"
     inkscape:zoom="1.979899"
     inkscape:cx="160.99711"
     inkscape:cy="206.24337"
     inkscape:document-units="px"
     inkscape:current-layer="layer1"
     showgrid="false"
     inkscape:window-width="1400"
     inkscape:window-height="995"
     inkscape:window-x="-3"
     inkscape:window-y="-3"
     inkscape:window-maximized="1"
     fit-margin-top="0"
     fit-margin-left="0"
     fit-margin-right="0"
     fit-margin-bottom="0" />
  <metadata
     id="metadata7">
    <rdf:RDF>
      <cc:Work
         rdf:about="">
        <dc:format>image/svg+xml</dc:format>
        <dc:type
           rdf:resource="http://purl.org/dc/dcmitype/StillImage" />
        <dc:title></dc:title>
      </cc:Work>
    </rdf:RDF>
  </metadata>
  <g
     inkscape:label="Layer 1"
     inkscape:groupmode="layer"
     id="layer1"
     transform="translate(1490.8131,893.90735)">
    <g
       id="g13"
       transform="matrix(0.39651627,0,0,0.38793001,-1404.2591,-892.70439)"
       style="fill:#f7f5b8;fill-opacity:1;stroke:none">
      <path
         id="path15"
         d="m 11.466,283.57 c 2.268,0.36 4.68,0.36 7.632,0 2.88,-0.43 6.012,-1.11 9.54,-2.19 l 0.324,-3.82 c 3.42,-0.28 6.516,-0.39 9.864,-0.32 3.204,0.04 6.012,0.61 9.54,0.61 3.42,-0.22 8.208,-1.01 11.448,-1.26 3.276,-0.29 5.832,-0.4 7.956,-0.32 0.252,-0.58 0.252,-1.8 0,-3.82 -0.324,-2.12 -1.728,-5.9 -1.584,-8.28 0.18,-2.37 0.936,-4.28 2.556,-5.72 -0.72,2.05 -1.044,3.99 -0.972,5.43 0.036,1.41 0.792,1.41 1.296,3.5 0.468,2.08 0.756,5 1.26,8.89 3.096,0.03 6.552,0.25 10.512,0.65 3.888,0.39 7.308,1.62 13.032,1.58 5.616,-0.29 15.34,-2.16 20.99,-2.56 5.69,-0.39 9.75,-0.28 12.74,0.33 3.42,0.83 7.53,1.4 12.71,1.58 5.22,0.11 12.46,-0.32 17.82,-0.61 5.08,-0.47 7.2,-0.9 13.03,-1.3 5.8,-0.43 15.81,-0.97 21.96,-0.93 6.12,0.03 9.9,1.29 14.65,1.26 4.72,-0.11 9.04,-0.79 13.36,-1.91 0.29,-0.79 0.61,-1.98 1.26,-3.17 0.57,-1.29 1.84,-2.23 2.23,-4.46 0.29,-2.38 -0.61,-7.96 -0.32,-9.54 0.25,-1.66 0.64,-1.77 1.58,-0.33 -0.57,2.85 -0.47,5.3 0.32,7.64 0.76,2.26 3.07,4.28 4.14,6.04 0.9,1.8 -0.32,3.24 1.59,4.47 1.87,1.11 3.85,1.62 9.54,1.91 5.54,0.18 17.39,-0.51 23.87,-0.65 6.3,-0.29 8.6,-0.22 14.25,-0.61 5.65,-0.47 13.14,-1.91 19.41,-1.95 6.12,-0.14 11.95,0.29 17.49,1.3 l -0.32,5.72 c 2.99,2.49 6.23,3.6 9.86,3.49 3.57,-0.21 7.49,-1.65 11.77,-4.46 L 342.27,5.22 V 5.224 C 342.09,5.044 340.86,4.72 338.74,4.252 336.51,3.784 333.38,3.388 329.2,2.668 l -1.91,-2.556 c -3.17,-0.072 -5.58,0.144 -7.63,0.647 -2.05,0.612 -3.49,1.332 -4.46,2.557 l 0.32,8.279 c -16.06,-0.252 -28.33,-0.684 -37.22,-1.296 -8.93,-0.576 -10.16,-2.16 -15.92,-2.231 -5.94,0.107 -13.53,1.872 -18.75,2.231 -5.19,0.396 -7.78,-0.071 -12.1,0 -4.46,0.181 -9.18,0.504 -14.29,0.973 -0.04,2.411 -0.25,4.428 -0.65,6.048 -0.5,1.655 -1.01,2.88 -1.91,3.815 0.62,-2.088 0.72,-4.104 0.33,-6.048 -0.51,-1.872 -1.33,-3.672 -2.88,-5.399 -5.98,-0.685 -11.7,-1.116 -17.17,-1.297 -5.66,-0.144 -10.73,-0.035 -15.92,0.324 0.62,1.836 0.83,3.528 0.65,5.076 -0.32,1.62 -1.51,2.412 -1.91,4.464 -0.39,2.196 -0.5,4.824 -0.32,8.28 -0.04,-0.72 -0.14,-1.584 -0.32,-2.88 -0.33,-1.188 -0.69,-2.809 -0.94,-4.428 -0.18,-1.477 0.18,-3.169 -0.32,-4.788 -0.69,-1.513 -0.83,-3.276 -3.5,-4.465 -2.8,-1.079 -8.02,-1.943 -12.74,-2.195 -4.82,-0.252 -12.13,-0.072 -15.26,0.936 -3.06,1.225 -1.48,6.013 -3.17,6.048 -1.77,0.072 -3.89,-4.752 -7.35,-5.724 -3.6,-0.9 -8.85,0.36 -13.68,0.324 -4.82,0.071 -9.75,0.071 -14.94,0 -0.97,1.332 -1.72,2.808 -2.55,4.428 -0.83,1.656 -1.3,5.544 -2.23,5.437 -1.192,-0.036 -3.532,-4.393 -3.82,-5.725 -0.18,-1.224 2.988,-0.756 2.556,-1.908 C 98.62,10.515 97.828,7.78 93.472,7.131 88.938,6.59 82.278,7.058 72.81,8.39 71.946,12.855 70.866,15.086 69.282,15.086 67.662,15.05 66.078,9.722 63.558,8.39 61.002,7.239 61.434,8.102 54.018,7.779 46.35,7.526 34.722,7.202 18.45,6.806 17.802,4.863 16.182,3.746 13.05,3.315 9.99,2.955 5.598,3.422 0.018,4.575 l 3.168,271.7 v -0.01 c 1.62,1.01 3.24,1.62 4.464,2.23 1.188,0.5 2.376,0.83 3.168,0.97 0.216,1.37 0.432,2.74 0.648,4.1 z"
         stroke-miterlimit="10"
         inkscape:connector-curvature="0"
         style="fill:#f7f5b8;fill-opacity:1;fill-rule:evenodd;stroke:none" />
    </g>
    <path
       sodipodi:type="arc"
       style="fill:#e3e3e3;fill-opacity:1;stroke:#8f8f8f;stroke-width:10.46379757000000055;stroke-miterlimit:4;stroke-opacity:1;stroke-dasharray:none"
       id="path2996-1"
       sodipodi:cx="-160"
       sodipodi:cy="438.07648"
       sodipodi:rx="260"
       sodipodi:ry="260"
       d="m 100,438.07648 c 0,143.59403 -116.405965,260 -260,260 -143.59403,0 -260,-116.40597 -260,-260 0,-143.59404 116.40597,-260 260,-260 143.594035,0 260,116.40596 260,260 z"
       transform="matrix(0.1911352,0,0,0.1911352,-1201.293,-642.72314)"
       inkscape:export-xdpi="176.93193"
       inkscape:export-ydpi="176.93193" />
    <text
       xml:space="preserve"
       style="font-size:18.23654175px;font-style:normal;font-weight:normal;text-align:center;line-height:125%;letter-spacing:0px;word-spacing:0px;text-anchor:middle;fill:#5aa83f;fill-opacity:1;stroke:none;font-family:Sans"
       x="-1231.2555"
       y="-565.63855"
       id="text3766"
       sodipodi:linespacing="125%"><tspan
         sodipodi:role="line"
         id="tspan3768"
         x="-1231.2555"
         y="-565.63855">Lese-</tspan><tspan
         sodipodi:role="line"
         x="-1231.2555"
         y="-542.8429"
         id="tspan3778">fassung</tspan></text>
    <path
       sodipodi:type="arc"
       style="fill:#e3e3e3;fill-opacity:1;stroke:#8f8f8f;stroke-width:10.46379757000000055;stroke-miterlimit:4;stroke-opacity:1;stroke-dasharray:none"
       id="path2996-9"
       sodipodi:cx="-160"
       sodipodi:cy="438.07648"
       sodipodi:rx="260"
       sodipodi:ry="260"
       d="m 100,438.07648 c 0,143.59403 -116.405965,260 -260,260 -143.59403,0 -260,-116.40597 -260,-260 0,-143.59404 116.40597,-260 260,-260 143.594035,0 260,116.40596 260,260 z"
       transform="matrix(0.1911352,0,0,0.1911352,-1409.5363,-642.72314)"
       inkscape:export-filename="/home/patrick/Documents/offeneBibel/repos/logos/path2996-1.png"
       inkscape:export-xdpi="176.93193"
       inkscape:export-ydpi="176.93193" />
    <text
       xml:space="preserve"
       style="font-size:17.98945427px;font-style:normal;font-weight:normal;text-align:center;line-height:125%;letter-spacing:0px;word-spacing:0px;text-anchor:middle;fill:#000000;fill-opacity:1;stroke:none;font-family:Sans"
       x="-1440.2318"
       y="-565.27179"
       id="text3770"
       sodipodi:linespacing="125%"><tspan
         sodipodi:role="line"
         id="tspan3772"
         x="-1440.2318"
         y="-565.27179"
         style="fill:#f46b00;fill-opacity:1">Leichte</tspan><tspan
         sodipodi:role="line"
         x="-1440.2318"
         y="-542.78497"
         id="tspan3800"
         style="fill:#f46b00;fill-opacity:1">Sprache</tspan></text>
    <path
       sodipodi:type="arc"
       style="fill:#e3e3e3;fill-opacity:1;stroke:#8f8f8f;stroke-width:10.46379757000000055;stroke-miterlimit:4;stroke-opacity:1;stroke-dasharray:none"
       id="path2996"
       sodipodi:cx="-160"
       sodipodi:cy="438.07648"
       sodipodi:rx="260"
       sodipodi:ry="260"
       d="m 100,438.07648 c 0,143.59403 -116.405965,260 -260,260 -143.59403,0 -260,-116.40597 -260,-260 0,-143.59404 116.40597,-260 260,-260 143.594035,0 260,116.40596 260,260 z"
       transform="matrix(0.1911352,0,0,0.1911352,-1305.4147,-762.50119)"
       inkscape:export-xdpi="176.93193"
       inkscape:export-ydpi="176.93193" />
    <text
       xml:space="preserve"
       style="font-size:18.07399559px;font-style:normal;font-weight:normal;text-align:center;line-height:125%;letter-spacing:0px;word-spacing:0px;text-anchor:middle;fill:#067ffc;fill-opacity:1;stroke:none;font-family:Sans"
       x="-1336.1461"
       y="-685.07935"
       id="text3774"
       sodipodi:linespacing="125%"><tspan
         sodipodi:role="line"
         id="tspan3776"
         x="-1336.1461"
         y="-685.07935">Studien-</tspan><tspan
         sodipodi:role="line"
         x="-1336.1461"
         y="-662.48688"
         id="tspan3780">fassung</tspan></text>
    <path
       style="fill:none;stroke:#000000;stroke-width:1.8622576;stroke-linecap:butt;stroke-linejoin:miter;stroke-miterlimit:43.29999924;stroke-opacity:1;stroke-dasharray:none;marker-end:url(#Arrow2Lend)"
       d="m -1336.0288,-783.13384 c 0,48.24134 0,48.95077 0,48.95077"
       id="path3916"
       inkscape:connector-curvature="0" />
    <path
       style="fill-opacity:1;fill-rule:evenodd;stroke:none"
       d="m -1275.9492,-893.86561 c -1.4359,0.11766 -3.4031,0.35803 -3.9956,1.81163 0.2645,1.76819 0.3686,3.37512 -1.9026,2.65039 -5.85,-0.20212 -11.8113,-0.01 -17.519,-1.28364 -4.0992,-0.17021 -8.08,1.31559 -12.2035,0.84643 -2.3786,-0.0188 -4.7538,0.20394 -7.1226,0.40089 0.01,0.66136 0.086,1.74317 -0.2895,0.66178 -0.4569,-1.41188 -1.872,-1.51028 -3.1591,-1.53664 -3.9267,-0.3552 -7.8813,-0.42063 -11.8139,-0.11783 0.3133,0.98358 0.8008,2.23026 0.074,3.1435 -0.1245,-1.83646 -1.8076,-2.99181 -3.5158,-3.13521 -3.2579,-0.49587 -6.7422,-0.85291 -9.9433,0.0745 -0.8296,0.3481 -0.9471,1.48281 -1.092,2.10944 -1.0147,-1.29197 -2.4214,-2.528 -4.2106,-2.23354 -3.3457,0.32717 -6.7086,0.30565 -10.0675,0.25646 -0.8242,1.09121 -1.4368,2.39035 -1.7537,3.6481 -0.2917,-0.53883 -1.2587,-1.46039 -0.182,-1.57175 0.9323,-0.80468 -0.3577,-2.13271 -1.1499,-2.58098 -2.8207,-1.01989 -5.9919,-0.20171 -8.8597,0.0331 -1.7354,-0.3058 -0.9802,1.94153 -1.9688,2.71334 -0.826,-1.32443 -1.8407,-3.23827 -3.7554,-2.87555 -5.3421,-0.0398 -10.6942,-0.27584 -16.0321,-0.3755 -1.2968,-2.0161 -4.151,-1.41035 -6.1546,-1.16639 -1.2416,0.12028 -2.549,0.2708 -1.9979,1.87776 0.4112,35.55461 0.8313,71.10917 1.2369,106.66382 0.9518,0.61302 2.0666,1.10048 3.0855,1.44766 -0.072,1.22341 0.4137,1.93066 1.6373,1.78044 2.1802,0.0797 4.3196,-0.44232 6.3704,-1.11865 -0.4402,-1.68447 0.8854,-1.54388 2.0929,-1.49729 2.9215,0.0467 5.8678,0.5208 8.7604,-0.11582 1.4817,-0.22815 2.9861,-0.27242 4.4836,-0.26471 0.186,-0.33437 2.0903,0.24902 3.0856,0.12408 3.1433,0.23181 6.2465,1.23534 9.4139,0.52943 4.0874,-0.58665 8.313,-1.41962 12.3755,-0.31435 7.7888,1.00797 15.574,-0.89317 23.3777,-0.81896 3.3871,-0.0718 6.748,0.99847 10.1296,0.16118 0.9471,-0.31164 2.4844,-0.0728 2.6015,-1.3524 0.284,-0.90523 1.0939,-1.55462 1.2078,-2.52307 0.7058,0.89891 1.5213,1.7112 1.4725,2.91187 1.0105,1.66523 3.4025,1.38876 5.0957,1.5552 6.8226,-0.12324 13.6695,-0.23232 20.441,-1.15813 2.7426,-0.27456 5.5329,-0.0849 8.2393,0.30608 -0.093,1.07752 -0.4074,2.30186 0.8107,2.76297 2.7048,1.85337 6.2636,0.74542 8.6942,-1.04232 0.5988,-36.37611 1.1718,-72.7528 1.7703,-109.1289 -1.6461,-1.0357 -3.935,-0.58712 -5.56,-1.42833 -0.4487,-1.14878 -1.2165,-0.83274 -2.2077,-0.83004 z m -0.6949,1.87781 c 0.905,-0.14252 1.7783,0.45393 2.3494,0.96788 -1.0524,-0.12712 -2.4352,-0.3332 -3.2759,-0.76934 0.2994,-0.10332 0.6056,-0.20058 0.9265,-0.19854 z m -123.68,1.05886 c 0.8312,-0.008 1.68,0.17421 2.4155,0.55426 1.0748,32.63083 2.4002,65.25266 3.8361,97.86915 0.1036,2.8706 0.1994,5.7414 0.2836,8.61262 -2.4368,-1.20941 -5.305,-1.57806 -7.9828,-1.13331 -0.4756,-35.13795 -0.9081,-70.27645 -1.365,-105.41464 0.9169,-0.26773 1.8557,-0.46245 2.8126,-0.48808 z m 122.1827,1.21605 c 2.6233,1.00666 5.56,0.95607 8.2889,0.30607 -0.5405,35.26231 -1.0809,70.5246 -1.6214,105.7869 -1.8006,0.65042 -3.9173,1.83348 -5.8403,1.10022 -0.9972,-0.8591 -0.09,-2.52144 -0.3998,-3.65638 -0.059,-34.52085 -0.033,-69.0431 -0.4936,-103.56164 l 0.066,0.0249 z m -114.5804,0.22337 c 4.1153,0.13696 8.3255,0.49401 12.3837,0.19025 1.7993,0.53859 2.1622,3.65477 4.4092,3.23448 1.299,-0.51355 1.6844,-2.03558 1.944,-3.25928 2.4172,-0.10533 5.0593,-0.53923 7.3624,0.0827 0.1157,0.59424 -0.9969,0.77853 -0.6205,1.51386 0.5142,1.31547 1.4681,2.82901 2.8954,3.25102 1.3911,-0.10361 1.3412,-1.9752 1.9688,-2.8953 0.1587,-1.39097 1.2014,-1.40122 2.3987,-1.20813 2.7026,0.24647 5.426,-0.18554 8.1072,-0.0493 1.52,0.57589 2.2722,2.5729 3.9542,2.7216 1.1164,-0.32944 1.5203,-1.66332 1.3401,-2.68851 2.1219,-0.7426 4.646,-0.65196 6.8991,-0.36398 1.4543,0.39345 3.9264,0.3985 4.1362,2.31626 0.01,2.16346 -0.03,5.13635 2.3852,6.09152 1.0327,0.56851 -0.1146,-1.79299 0.1048,-2.55924 -0.3065,-2.0485 1.2664,-3.67131 1.3732,-5.68309 3.4628,0.0154 7.0037,0.006 10.4149,0.18196 1.2955,1.62774 1.4031,3.81219 1.3153,5.81548 1.5806,-1.22312 2.6741,-2.98022 2.8705,-4.97996 5.4847,-0.0637 11.0416,0.14732 16.4207,-1.0754 3.1108,-0.24653 6.0823,1.14706 9.2071,1.01751 3.8755,0.20616 7.7591,0.20709 11.6392,0.19025 0.1654,33.86427 0.3309,67.72854 0.4963,101.5928 -7.1795,-1.35108 -14.2986,1.19681 -21.5081,0.90996 -3.2828,-0.0654 -6.6882,0.40523 -9.8937,-0.32262 -0.6625,-0.34738 -0.8667,-0.91609 -1.0341,-1.58829 -1.0801,-1.61838 -2.0566,-3.41304 -1.7206,-5.43494 0.2931,-1.57479 -2.6444,-2.67211 -2.9036,-0.83551 -0.024,2.36907 0.5597,5.22688 -1.183,7.10596 -1.9825,0.6742 -4.2578,0.93787 -6.3697,0.64524 -4.189,-0.56582 -8.4768,-0.19862 -12.6898,-0.0165 -4.393,0.42943 -8.8803,1.52508 -13.2493,0.52311 -3.9301,-0.80779 -7.9485,-0.97317 -11.9255,-0.39476 -2.5463,0.12235 -5.1077,1.48347 -7.6251,0.81469 -1.7747,-0.86659 -3.8124,-0.7629 -5.7327,-1.0175 -1.2808,-2.44707 -1.1824,-5.34315 -0.2319,-7.88917 0.3683,-1.31595 -1.4767,0.93627 -1.9437,1.39538 -1.1365,1.35747 -2.6798,2.94325 -1.8365,4.86414 0.075,0.65526 0.5486,1.47222 0.4798,1.96882 -4.3309,0.53306 -8.8026,0.70572 -13.1531,0.3309 -1.4559,-34.88453 -2.9118,-69.76904 -4.3678,-104.65358 1.1609,0.0524 2.3218,0.10477 3.4827,0.15719 z m -6.2125,106.02677 c 1.1421,0.0882 2.2697,0.41388 3.3337,0.85205 -0.9571,0.29676 -2.0335,0.50744 -3.0028,0.30608 -0.1019,-0.37702 -0.2649,-0.80874 -0.3309,-1.15813 z"
       id="path58"
       inkscape:connector-curvature="0" />
    <text
       xml:space="preserve"
       style="font-size:17.88269424px;font-style:normal;font-weight:normal;line-height:125%;letter-spacing:0px;word-spacing:0px;fill-opacity:1;stroke:none;font-family:Sans"
       x="-1364.4442"
       y="-862.15656"
       id="text3827"
       sodipodi:linespacing="125%"><tspan
         sodipodi:role="line"
         id="tspan3829"
         x="-1364.4442"
         y="-862.15656">Urtext</tspan></text>
    <text
       xml:space="preserve"
       style="font-size:11.06399727px;font-style:normal;font-weight:normal;text-align:center;line-height:125%;letter-spacing:0px;word-spacing:0px;text-anchor:middle;fill-opacity:1;stroke:none;font-family:Sans"
       x="-1336.05"
       y="-828.11206"
       id="text3831"
       sodipodi:linespacing="125%"><tspan
         sodipodi:role="line"
         id="tspan3833"
         x="-1336.05"
         y="-828.11206">&amp; wissenschaftliche</tspan><tspan
         sodipodi:role="line"
         x="-1336.05"
         y="-814.28204"
         id="tspan3835">Literatur</tspan></text>
    <path
       style="fill:none;stroke:#000000;stroke-width:1.8622576;stroke-linecap:butt;stroke-linejoin:miter;stroke-miterlimit:43.29999924;stroke-opacity:1;stroke-dasharray:none;marker-end:url(#Arrow2Lend)"
       d="m -1374.6168,-639.85399 c -30.674,37.23342 -31.1251,37.78096 -31.1251,37.78096"
       id="path3916-9"
       inkscape:connector-curvature="0" />
    <path
       style="fill:none;stroke:#000000;stroke-width:1.8622576;stroke-linecap:butt;stroke-linejoin:miter;stroke-miterlimit:43.29999924;stroke-opacity:1;stroke-dasharray:none;marker-end:url(#Arrow2Lend)"
       d="m -1297.4259,-639.83313 c 30.6741,37.23342 31.1252,37.78096 31.1252,37.78096"
       id="path3916-9-6"
       inkscape:connector-curvature="0" />
  </g>
</svg>
